G04*
G04 #@! TF.GenerationSoftware,Altium Limited,Altium Designer,21.3.2 (30)*
G04*
G04 Layer_Color=16711935*
%FSLAX25Y25*%
%MOIN*%
G70*
G04*
G04 #@! TF.SameCoordinates,2D34F3B8-E760-4067-911C-3035D0D24B3A*
G04*
G04*
G04 #@! TF.FilePolarity,Positive*
G04*
G01*
G75*
%ADD12C,0.00394*%
%ADD100R,0.03765X0.24488*%
D12*
X157677Y131693D02*
X157413Y132677D01*
X156693Y133398D01*
X155709Y133661D01*
X154724Y133398D01*
X154004Y132677D01*
X153740Y131693D01*
X154004Y130709D01*
X154724Y129988D01*
X155709Y129724D01*
X156693Y129988D01*
X157413Y130709D01*
X157677Y131693D01*
X128635Y144291D02*
X128371Y145276D01*
X127651Y145996D01*
X126666Y146260D01*
X125682Y145996D01*
X124962Y145276D01*
X124698Y144291D01*
X124962Y143307D01*
X125682Y142587D01*
X126666Y142323D01*
X127651Y142587D01*
X128371Y143307D01*
X128635Y144291D01*
X31198Y29331D02*
X37891D01*
X31198Y32874D02*
X37891D01*
X31198Y29331D02*
Y32874D01*
X37891Y29331D02*
Y32874D01*
X31198Y36830D02*
X37891D01*
X31198Y40373D02*
X37891D01*
X31198Y36830D02*
Y40373D01*
X37891Y36830D02*
Y40373D01*
X217913Y34055D02*
X224606D01*
X217913Y30512D02*
X224606D01*
Y34055D01*
X217913Y30512D02*
Y34055D01*
X217913Y41142D02*
X224606D01*
X217913Y37598D02*
X224606D01*
Y41142D01*
X217913Y37598D02*
Y41142D01*
X217913Y48228D02*
X224606D01*
X217913Y44685D02*
X224606D01*
Y48228D01*
X217913Y44685D02*
Y48228D01*
X220276Y174213D02*
X226969D01*
X220276Y170669D02*
X226969D01*
Y174213D01*
X220276Y170669D02*
Y174213D01*
Y181299D02*
X226969D01*
X220276Y177756D02*
X226969D01*
Y181299D01*
X220276Y177756D02*
Y181299D01*
X220276Y188386D02*
X226969D01*
X220276Y184843D02*
X226969D01*
Y188386D01*
X220276Y184843D02*
Y188386D01*
X234055Y113583D02*
Y120276D01*
X237598Y113583D02*
Y120276D01*
X234055Y113583D02*
X237598D01*
X234055Y120276D02*
X237598D01*
X176163Y181424D02*
X181174Y186435D01*
X178668Y178919D02*
X183679Y183930D01*
X176163Y181424D02*
X178668Y178919D01*
X181174Y186435D02*
X183679Y183930D01*
X187954Y177070D02*
X196027Y185143D01*
X192408Y172616D02*
X200481Y180689D01*
X196027Y185143D02*
X200481Y180689D01*
X187954Y177070D02*
X192408Y172616D01*
X189941Y53898D02*
X217933D01*
X189941Y78386D02*
X217933D01*
Y53898D02*
Y78386D01*
X189941Y53898D02*
Y78386D01*
X152165Y119095D02*
Y135236D01*
X168307Y119095D02*
Y135236D01*
X152165D02*
X168307D01*
X152165Y119095D02*
X168307D01*
X181675Y172062D02*
X186686Y167051D01*
X184180Y174568D02*
X189191Y169557D01*
X186686Y167051D02*
X189191Y169557D01*
X181675Y172062D02*
X184180Y174568D01*
X204983Y172592D02*
X209994Y167581D01*
X195518Y163127D02*
X200529Y158116D01*
X209994Y167581D01*
X195518Y163127D02*
X204983Y172592D01*
X187500Y105905D02*
X228051D01*
X187500Y141929D02*
X228051D01*
X187500Y105905D02*
Y141929D01*
X228051Y105905D02*
Y141929D01*
X83661Y44685D02*
X132874D01*
X83661Y93898D02*
X132874D01*
X83661Y44685D02*
Y93898D01*
X132874Y44685D02*
Y93898D01*
X113189Y26575D02*
X116732D01*
X113189Y19882D02*
X116732D01*
X113189D02*
Y26575D01*
X116732Y19882D02*
Y26575D01*
X113386Y11417D02*
X116535D01*
X113386Y5118D02*
X116535D01*
X113386D02*
Y11417D01*
X116535Y5118D02*
Y11417D01*
X153754Y178903D02*
X160841D01*
X153754Y175360D02*
X160841Y175360D01*
X153754Y175360D02*
Y178903D01*
X160841D02*
X160841Y175360D01*
X153754Y168077D02*
X160841Y168077D01*
X153754Y164534D02*
X160841D01*
X153754Y168077D02*
X153754Y164534D01*
X160841D02*
Y168077D01*
X184843Y44685D02*
Y93898D01*
X135630Y44685D02*
Y93898D01*
X184843D01*
X135630Y44685D02*
X184843D01*
X146555Y111614D02*
X153642D01*
X146555Y115157D02*
X153642D01*
Y111614D02*
Y115157D01*
X146555Y111614D02*
Y115157D01*
X153468Y150326D02*
X158200Y145594D01*
X155973Y152832D02*
X160706Y148099D01*
X158200Y145594D02*
X160706Y148099D01*
X153468Y150326D02*
X155973Y152832D01*
X171850Y123327D02*
Y130413D01*
X175394Y123327D02*
Y130413D01*
X171850Y123327D02*
X175394D01*
X171850Y130413D02*
X175394D01*
X146555Y103347D02*
X153642D01*
X146555Y106890D02*
X153642D01*
Y103347D02*
Y106890D01*
X146555Y103347D02*
Y106890D01*
X164370Y106004D02*
Y113091D01*
X160827Y106004D02*
Y113091D01*
X164370D01*
X160827Y106004D02*
X164370D01*
X103740Y19882D02*
X107283D01*
X103740Y26575D02*
X107283D01*
Y19882D02*
Y26575D01*
X103740Y19882D02*
Y26575D01*
X103937Y11319D02*
X107087D01*
X103937Y5020D02*
X107087D01*
X103937D02*
Y11319D01*
X107087Y5020D02*
Y11319D01*
X31198Y44291D02*
X37891D01*
X31198Y47835D02*
X37891D01*
X31198Y44291D02*
Y47835D01*
X37891Y44291D02*
Y47835D01*
X32283Y187992D02*
X38976D01*
X32283Y191535D02*
X38976D01*
X32283Y187992D02*
Y191535D01*
X38976Y187992D02*
Y191535D01*
X32283Y180512D02*
X38976D01*
X32283Y184055D02*
X38976D01*
X32283Y180512D02*
Y184055D01*
X38976Y180512D02*
Y184055D01*
X32283Y173031D02*
X38976D01*
X32283Y176575D02*
X38976D01*
X32283Y173031D02*
Y176575D01*
X38976Y173031D02*
Y176575D01*
X103839Y172130D02*
X131677Y144291D01*
X76000D02*
X103839Y116453D01*
X131677Y144291D01*
X76000D02*
X103839Y172130D01*
D100*
X191824Y66142D02*
D03*
M02*
