G04*
G04 #@! TF.GenerationSoftware,Altium Limited,Altium Designer,21.3.2 (30)*
G04*
G04 Layer_Physical_Order=4*
G04 Layer_Color=16711680*
%FSLAX25Y25*%
%MOIN*%
G70*
G04*
G04 #@! TF.SameCoordinates,2D34F3B8-E760-4067-911C-3035D0D24B3A*
G04*
G04*
G04 #@! TF.FilePolarity,Positive*
G04*
G01*
G75*
%ADD11C,0.00787*%
%ADD12C,0.00394*%
%ADD41C,0.07087*%
%ADD51R,0.03740X0.03150*%
%ADD71C,0.03937*%
%ADD72C,0.01968*%
%ADD79C,0.04724*%
%ADD80R,0.07480X0.07480*%
%ADD81C,0.07480*%
%ADD82O,0.08268X0.08661*%
%ADD83O,0.07874X0.06299*%
%ADD84R,0.07874X0.06299*%
%ADD85C,0.06299*%
%ADD86O,0.06299X0.07874*%
%ADD87R,0.06299X0.07874*%
%ADD88C,0.13780*%
%ADD89C,0.01968*%
%ADD90C,0.02362*%
%ADD91C,0.05000*%
%ADD92C,0.05906*%
%ADD93C,0.19685*%
%ADD94R,0.05118X0.02362*%
%ADD95R,0.03150X0.03740*%
%ADD96R,0.03150X0.03150*%
G36*
X248822Y220088D02*
X250642Y219334D01*
X252280Y218240D01*
X253673Y216847D01*
X254767Y215209D01*
X255521Y213389D01*
X255906Y211457D01*
Y210472D01*
Y10000D01*
Y9015D01*
X255521Y7083D01*
X254767Y5263D01*
X253673Y3625D01*
X252280Y2232D01*
X250642Y1138D01*
X248822Y384D01*
X246890Y0D01*
X9015D01*
X7083Y384D01*
X5263Y1138D01*
X3625Y2232D01*
X2232Y3625D01*
X1138Y5263D01*
X384Y7083D01*
X0Y9015D01*
Y10000D01*
Y210472D01*
Y211457D01*
X384Y213389D01*
X1138Y215209D01*
X2232Y216847D01*
X3625Y218240D01*
X5263Y219334D01*
X7083Y220088D01*
X9015Y220472D01*
X246890D01*
X248822Y220088D01*
D02*
G37*
%LPC*%
G36*
X223799Y215782D02*
X222224D01*
X221197Y215647D01*
X220239Y215250D01*
X219416Y214619D01*
X218785Y213796D01*
X218389Y212839D01*
X218306Y212213D01*
X218264Y211891D01*
X217760D01*
X217717Y212213D01*
X217635Y212839D01*
X217238Y213796D01*
X216607Y214619D01*
X215785Y215250D01*
X214827Y215647D01*
X213799Y215782D01*
X212224D01*
X211197Y215647D01*
X210239Y215250D01*
X209417Y214619D01*
X208785Y213796D01*
X208389Y212839D01*
X208306Y212213D01*
X208264Y211891D01*
X207760D01*
X207717Y212213D01*
X207635Y212839D01*
X207238Y213796D01*
X206607Y214619D01*
X205785Y215250D01*
X204827Y215647D01*
X203799Y215782D01*
X202224D01*
X201197Y215647D01*
X200239Y215250D01*
X199416Y214619D01*
X198785Y213796D01*
X198389Y212839D01*
X198306Y212213D01*
X198264Y211891D01*
X197760D01*
X197717Y212213D01*
X197635Y212839D01*
X197238Y213796D01*
X196607Y214619D01*
X195785Y215250D01*
X194827Y215647D01*
X193799Y215782D01*
X192224D01*
X191197Y215647D01*
X190239Y215250D01*
X189417Y214619D01*
X188785Y213796D01*
X188389Y212839D01*
X188306Y212213D01*
X188264Y211891D01*
X187760D01*
X187717Y212213D01*
X187635Y212839D01*
X187238Y213796D01*
X186607Y214619D01*
X185785Y215250D01*
X184827Y215647D01*
X183799Y215782D01*
X182224D01*
X181197Y215647D01*
X180239Y215250D01*
X179417Y214619D01*
X178785Y213796D01*
X178389Y212839D01*
X178306Y212213D01*
X178264Y211891D01*
X177760D01*
X177717Y212213D01*
X177635Y212839D01*
X177238Y213796D01*
X176607Y214619D01*
X175785Y215250D01*
X174827Y215647D01*
X173799Y215782D01*
X172224D01*
X171197Y215647D01*
X170239Y215250D01*
X169416Y214619D01*
X168785Y213796D01*
X168389Y212839D01*
X168306Y212213D01*
X168264Y211891D01*
X167760D01*
X167717Y212213D01*
X167635Y212839D01*
X167238Y213796D01*
X166607Y214619D01*
X165785Y215250D01*
X164827Y215647D01*
X163799Y215782D01*
X162224D01*
X161197Y215647D01*
X160239Y215250D01*
X159416Y214619D01*
X158785Y213796D01*
X158389Y212839D01*
X158306Y212213D01*
X158264Y211891D01*
X157760D01*
X157717Y212213D01*
X157635Y212839D01*
X157238Y213796D01*
X156607Y214619D01*
X155785Y215250D01*
X154827Y215647D01*
X153799Y215782D01*
X152224D01*
X151197Y215647D01*
X150239Y215250D01*
X149416Y214619D01*
X148785Y213796D01*
X148389Y212839D01*
X148306Y212213D01*
X148264Y211891D01*
X147760D01*
X147717Y212213D01*
X147635Y212839D01*
X147238Y213796D01*
X146607Y214619D01*
X145785Y215250D01*
X144827Y215647D01*
X143799Y215782D01*
X142224D01*
X141197Y215647D01*
X140239Y215250D01*
X139417Y214619D01*
X138785Y213796D01*
X138389Y212839D01*
X138306Y212213D01*
X138264Y211891D01*
X137760D01*
X137717Y212213D01*
X137635Y212839D01*
X137238Y213796D01*
X136607Y214619D01*
X135785Y215250D01*
X134827Y215647D01*
X133799Y215782D01*
X132224D01*
X131197Y215647D01*
X130239Y215250D01*
X129417Y214619D01*
X128785Y213796D01*
X128389Y212839D01*
X128306Y212213D01*
X128264Y211891D01*
X127760D01*
X127717Y212213D01*
X127635Y212839D01*
X127238Y213796D01*
X126607Y214619D01*
X125785Y215250D01*
X124827Y215647D01*
X123799Y215782D01*
X122224D01*
X121197Y215647D01*
X120239Y215250D01*
X119416Y214619D01*
X118785Y213796D01*
X118389Y212839D01*
X118306Y212213D01*
X118264Y211891D01*
X117760D01*
X117717Y212213D01*
X117635Y212839D01*
X117238Y213796D01*
X116607Y214619D01*
X115785Y215250D01*
X114827Y215647D01*
X113799Y215782D01*
X112224D01*
X111197Y215647D01*
X110239Y215250D01*
X109416Y214619D01*
X108785Y213796D01*
X108389Y212839D01*
X108306Y212213D01*
X108264Y211891D01*
X107760D01*
X107717Y212213D01*
X107635Y212839D01*
X107238Y213796D01*
X106607Y214619D01*
X105785Y215250D01*
X104827Y215647D01*
X103799Y215782D01*
X102224D01*
X101197Y215647D01*
X100239Y215250D01*
X99417Y214619D01*
X98785Y213796D01*
X98389Y212839D01*
X98306Y212213D01*
X98264Y211891D01*
X97760D01*
X97717Y212213D01*
X97635Y212839D01*
X97238Y213796D01*
X96607Y214619D01*
X95785Y215250D01*
X94827Y215647D01*
X93799Y215782D01*
X92224D01*
X91197Y215647D01*
X90239Y215250D01*
X89416Y214619D01*
X88785Y213796D01*
X88389Y212839D01*
X88306Y212213D01*
X88264Y211891D01*
X87760D01*
X87717Y212213D01*
X87635Y212839D01*
X87238Y213796D01*
X86607Y214619D01*
X85785Y215250D01*
X84827Y215647D01*
X83799Y215782D01*
X82224D01*
X81197Y215647D01*
X80239Y215250D01*
X79417Y214619D01*
X78785Y213796D01*
X78389Y212839D01*
X78306Y212213D01*
X78264Y211891D01*
X77760D01*
X77717Y212213D01*
X77635Y212839D01*
X77238Y213796D01*
X76607Y214619D01*
X75785Y215250D01*
X74827Y215647D01*
X73799Y215782D01*
X72224D01*
X71197Y215647D01*
X70239Y215250D01*
X69416Y214619D01*
X68785Y213796D01*
X68389Y212839D01*
X68306Y212213D01*
X68264Y211891D01*
X67760D01*
X67717Y212213D01*
X67635Y212839D01*
X67238Y213796D01*
X66607Y214619D01*
X65785Y215250D01*
X64827Y215647D01*
X63799Y215782D01*
X62224D01*
X61197Y215647D01*
X60239Y215250D01*
X59417Y214619D01*
X58785Y213796D01*
X58389Y212839D01*
X58306Y212213D01*
X58264Y211891D01*
X57760D01*
X57717Y212213D01*
X57635Y212839D01*
X57238Y213796D01*
X56607Y214619D01*
X55785Y215250D01*
X54827Y215647D01*
X53799Y215782D01*
X52224D01*
X51197Y215647D01*
X50239Y215250D01*
X49417Y214619D01*
X48785Y213796D01*
X48389Y212839D01*
X48306Y212213D01*
X48264Y211891D01*
X47760D01*
X47717Y212213D01*
X47635Y212839D01*
X47238Y213796D01*
X46607Y214619D01*
X45785Y215250D01*
X44827Y215647D01*
X43799Y215782D01*
X42224D01*
X41197Y215647D01*
X40239Y215250D01*
X39417Y214619D01*
X38785Y213796D01*
X38389Y212839D01*
X38253Y211811D01*
X38389Y210783D01*
X38785Y209825D01*
X39417Y209003D01*
X40239Y208372D01*
X41197Y207975D01*
X42224Y207840D01*
X43799D01*
X44827Y207975D01*
X45785Y208372D01*
X46607Y209003D01*
X47238Y209825D01*
X47635Y210783D01*
X47717Y211409D01*
X47760Y211731D01*
X48264D01*
X48306Y211409D01*
X48389Y210783D01*
X48785Y209825D01*
X49417Y209003D01*
X50239Y208372D01*
X51197Y207975D01*
X52224Y207840D01*
X53799D01*
X54827Y207975D01*
X55785Y208372D01*
X56607Y209003D01*
X57238Y209825D01*
X57635Y210783D01*
X57717Y211409D01*
X57760Y211731D01*
X58264D01*
X58306Y211409D01*
X58389Y210783D01*
X58785Y209825D01*
X59417Y209003D01*
X60239Y208372D01*
X61197Y207975D01*
X62224Y207840D01*
X63799D01*
X64827Y207975D01*
X65785Y208372D01*
X66607Y209003D01*
X67238Y209825D01*
X67635Y210783D01*
X67717Y211409D01*
X67760Y211731D01*
X68264D01*
X68306Y211409D01*
X68389Y210783D01*
X68785Y209825D01*
X69416Y209003D01*
X70239Y208372D01*
X71197Y207975D01*
X72224Y207840D01*
X73799D01*
X74827Y207975D01*
X75785Y208372D01*
X76607Y209003D01*
X77238Y209825D01*
X77635Y210783D01*
X77717Y211409D01*
X77760Y211731D01*
X78264D01*
X78306Y211409D01*
X78389Y210783D01*
X78785Y209825D01*
X79417Y209003D01*
X80239Y208372D01*
X81197Y207975D01*
X82224Y207840D01*
X83799D01*
X84827Y207975D01*
X85785Y208372D01*
X86607Y209003D01*
X87238Y209825D01*
X87635Y210783D01*
X87717Y211409D01*
X87760Y211731D01*
X88264D01*
X88306Y211409D01*
X88389Y210783D01*
X88785Y209825D01*
X89416Y209003D01*
X90239Y208372D01*
X91197Y207975D01*
X92224Y207840D01*
X93799D01*
X94827Y207975D01*
X95785Y208372D01*
X96607Y209003D01*
X97238Y209825D01*
X97635Y210783D01*
X97717Y211409D01*
X97760Y211731D01*
X98264D01*
X98306Y211409D01*
X98389Y210783D01*
X98785Y209825D01*
X99417Y209003D01*
X100239Y208372D01*
X101197Y207975D01*
X102224Y207840D01*
X103799D01*
X104827Y207975D01*
X105785Y208372D01*
X106607Y209003D01*
X107238Y209825D01*
X107635Y210783D01*
X107717Y211409D01*
X107760Y211731D01*
X108264D01*
X108306Y211409D01*
X108389Y210783D01*
X108785Y209825D01*
X109416Y209003D01*
X110239Y208372D01*
X111197Y207975D01*
X112224Y207840D01*
X113799D01*
X114827Y207975D01*
X115785Y208372D01*
X116607Y209003D01*
X117238Y209825D01*
X117635Y210783D01*
X117717Y211409D01*
X117760Y211731D01*
X118264D01*
X118306Y211409D01*
X118389Y210783D01*
X118785Y209825D01*
X119416Y209003D01*
X120239Y208372D01*
X121197Y207975D01*
X122224Y207840D01*
X123799D01*
X124827Y207975D01*
X125785Y208372D01*
X126607Y209003D01*
X127238Y209825D01*
X127635Y210783D01*
X127717Y211409D01*
X127760Y211731D01*
X128264D01*
X128306Y211409D01*
X128389Y210783D01*
X128785Y209825D01*
X129417Y209003D01*
X130239Y208372D01*
X131197Y207975D01*
X132224Y207840D01*
X133799D01*
X134827Y207975D01*
X135785Y208372D01*
X136607Y209003D01*
X137238Y209825D01*
X137635Y210783D01*
X137717Y211409D01*
X137760Y211731D01*
X138264D01*
X138306Y211409D01*
X138389Y210783D01*
X138785Y209825D01*
X139417Y209003D01*
X140239Y208372D01*
X141197Y207975D01*
X142224Y207840D01*
X143799D01*
X144827Y207975D01*
X145785Y208372D01*
X146607Y209003D01*
X147238Y209825D01*
X147635Y210783D01*
X147717Y211409D01*
X147760Y211731D01*
X148264D01*
X148306Y211409D01*
X148389Y210783D01*
X148785Y209825D01*
X149416Y209003D01*
X150239Y208372D01*
X151197Y207975D01*
X152224Y207840D01*
X153799D01*
X154827Y207975D01*
X155785Y208372D01*
X156607Y209003D01*
X157238Y209825D01*
X157635Y210783D01*
X157717Y211409D01*
X157760Y211731D01*
X158264D01*
X158306Y211409D01*
X158389Y210783D01*
X158785Y209825D01*
X159416Y209003D01*
X160239Y208372D01*
X161197Y207975D01*
X162224Y207840D01*
X163799D01*
X164827Y207975D01*
X165785Y208372D01*
X166607Y209003D01*
X167238Y209825D01*
X167635Y210783D01*
X167717Y211409D01*
X167760Y211731D01*
X168264D01*
X168306Y211409D01*
X168389Y210783D01*
X168785Y209825D01*
X169416Y209003D01*
X170239Y208372D01*
X171197Y207975D01*
X172224Y207840D01*
X173799D01*
X174827Y207975D01*
X175785Y208372D01*
X176607Y209003D01*
X177238Y209825D01*
X177635Y210783D01*
X177717Y211409D01*
X177760Y211731D01*
X178264D01*
X178306Y211409D01*
X178389Y210783D01*
X178785Y209825D01*
X179417Y209003D01*
X180239Y208372D01*
X181197Y207975D01*
X182224Y207840D01*
X183799D01*
X184827Y207975D01*
X185785Y208372D01*
X186607Y209003D01*
X187238Y209825D01*
X187635Y210783D01*
X187717Y211409D01*
X187760Y211731D01*
X188264D01*
X188306Y211409D01*
X188389Y210783D01*
X188785Y209825D01*
X189417Y209003D01*
X190239Y208372D01*
X191197Y207975D01*
X192224Y207840D01*
X193799D01*
X194827Y207975D01*
X195785Y208372D01*
X196607Y209003D01*
X197238Y209825D01*
X197635Y210783D01*
X197717Y211409D01*
X197760Y211731D01*
X198264D01*
X198306Y211409D01*
X198389Y210783D01*
X198785Y209825D01*
X199416Y209003D01*
X200239Y208372D01*
X201197Y207975D01*
X202224Y207840D01*
X203799D01*
X204827Y207975D01*
X205785Y208372D01*
X206607Y209003D01*
X207238Y209825D01*
X207635Y210783D01*
X207717Y211409D01*
X207760Y211731D01*
X208264D01*
X208306Y211409D01*
X208389Y210783D01*
X208785Y209825D01*
X209417Y209003D01*
X210239Y208372D01*
X211197Y207975D01*
X212224Y207840D01*
X213799D01*
X214827Y207975D01*
X215785Y208372D01*
X216607Y209003D01*
X217238Y209825D01*
X217635Y210783D01*
X217717Y211409D01*
X217760Y211731D01*
X218264D01*
X218306Y211409D01*
X218389Y210783D01*
X218785Y209825D01*
X219416Y209003D01*
X220239Y208372D01*
X221197Y207975D01*
X222224Y207840D01*
X223799D01*
X224827Y207975D01*
X225785Y208372D01*
X226607Y209003D01*
X227238Y209825D01*
X227635Y210783D01*
X227770Y211811D01*
X227635Y212839D01*
X227238Y213796D01*
X226607Y214619D01*
X225785Y215250D01*
X224827Y215647D01*
X223799Y215782D01*
D02*
G37*
G36*
X37736Y215748D02*
X28287D01*
Y207874D01*
X37736D01*
Y215748D01*
D02*
G37*
G36*
X223799Y205782D02*
X222224D01*
X221197Y205647D01*
X220239Y205250D01*
X219416Y204619D01*
X218785Y203797D01*
X218389Y202839D01*
X218306Y202213D01*
X218264Y201891D01*
X217760D01*
X217717Y202213D01*
X217635Y202839D01*
X217238Y203797D01*
X216607Y204619D01*
X215785Y205250D01*
X214827Y205647D01*
X213799Y205782D01*
X212224D01*
X211197Y205647D01*
X210239Y205250D01*
X209417Y204619D01*
X208785Y203797D01*
X208389Y202839D01*
X208306Y202213D01*
X208264Y201891D01*
X207760D01*
X207717Y202213D01*
X207635Y202839D01*
X207238Y203797D01*
X206607Y204619D01*
X205785Y205250D01*
X204827Y205647D01*
X203799Y205782D01*
X202224D01*
X201197Y205647D01*
X200239Y205250D01*
X199416Y204619D01*
X198785Y203797D01*
X198389Y202839D01*
X198306Y202213D01*
X198264Y201891D01*
X197760D01*
X197717Y202213D01*
X197635Y202839D01*
X197238Y203797D01*
X196607Y204619D01*
X195785Y205250D01*
X194827Y205647D01*
X193799Y205782D01*
X192224D01*
X191197Y205647D01*
X190239Y205250D01*
X189417Y204619D01*
X188785Y203797D01*
X188389Y202839D01*
X188306Y202213D01*
X188264Y201891D01*
X187760D01*
X187717Y202213D01*
X187635Y202839D01*
X187238Y203797D01*
X186607Y204619D01*
X185785Y205250D01*
X184827Y205647D01*
X183799Y205782D01*
X182224D01*
X181197Y205647D01*
X180239Y205250D01*
X179417Y204619D01*
X178785Y203797D01*
X178389Y202839D01*
X178306Y202213D01*
X178264Y201891D01*
X177760D01*
X177717Y202213D01*
X177635Y202839D01*
X177238Y203797D01*
X176607Y204619D01*
X175785Y205250D01*
X174827Y205647D01*
X173799Y205782D01*
X172224D01*
X171197Y205647D01*
X170239Y205250D01*
X169416Y204619D01*
X168785Y203797D01*
X168389Y202839D01*
X168306Y202213D01*
X168264Y201891D01*
X167760D01*
X167717Y202213D01*
X167635Y202839D01*
X167238Y203797D01*
X166607Y204619D01*
X165785Y205250D01*
X164827Y205647D01*
X163799Y205782D01*
X162224D01*
X161197Y205647D01*
X160239Y205250D01*
X159416Y204619D01*
X158785Y203797D01*
X158389Y202839D01*
X158306Y202213D01*
X158264Y201891D01*
X157760D01*
X157717Y202213D01*
X157635Y202839D01*
X157238Y203797D01*
X156607Y204619D01*
X155785Y205250D01*
X154827Y205647D01*
X153799Y205782D01*
X152224D01*
X151197Y205647D01*
X150239Y205250D01*
X149416Y204619D01*
X148785Y203797D01*
X148389Y202839D01*
X148306Y202213D01*
X148264Y201891D01*
X147760D01*
X147717Y202213D01*
X147635Y202839D01*
X147238Y203797D01*
X146607Y204619D01*
X145785Y205250D01*
X144827Y205647D01*
X143799Y205782D01*
X142224D01*
X141197Y205647D01*
X140239Y205250D01*
X139417Y204619D01*
X138785Y203797D01*
X138389Y202839D01*
X138306Y202213D01*
X138264Y201891D01*
X137760D01*
X137717Y202213D01*
X137635Y202839D01*
X137238Y203797D01*
X136607Y204619D01*
X135785Y205250D01*
X134827Y205647D01*
X133799Y205782D01*
X132224D01*
X131197Y205647D01*
X130239Y205250D01*
X129417Y204619D01*
X128785Y203797D01*
X128389Y202839D01*
X128306Y202213D01*
X128264Y201891D01*
X127760D01*
X127717Y202213D01*
X127635Y202839D01*
X127238Y203797D01*
X126607Y204619D01*
X125785Y205250D01*
X124827Y205647D01*
X123799Y205782D01*
X122224D01*
X121197Y205647D01*
X120239Y205250D01*
X119416Y204619D01*
X118785Y203797D01*
X118389Y202839D01*
X118306Y202213D01*
X118264Y201891D01*
X117760D01*
X117717Y202213D01*
X117635Y202839D01*
X117238Y203797D01*
X116607Y204619D01*
X115785Y205250D01*
X114827Y205647D01*
X113799Y205782D01*
X112224D01*
X111197Y205647D01*
X110239Y205250D01*
X109416Y204619D01*
X108785Y203797D01*
X108389Y202839D01*
X108306Y202213D01*
X108264Y201891D01*
X107760D01*
X107717Y202213D01*
X107635Y202839D01*
X107238Y203797D01*
X106607Y204619D01*
X105785Y205250D01*
X104827Y205647D01*
X103799Y205782D01*
X102224D01*
X101197Y205647D01*
X100239Y205250D01*
X99417Y204619D01*
X98785Y203797D01*
X98389Y202839D01*
X98306Y202213D01*
X98264Y201891D01*
X97760D01*
X97717Y202213D01*
X97635Y202839D01*
X97238Y203797D01*
X96607Y204619D01*
X95785Y205250D01*
X94827Y205647D01*
X93799Y205782D01*
X92224D01*
X91197Y205647D01*
X90239Y205250D01*
X89416Y204619D01*
X88785Y203797D01*
X88389Y202839D01*
X88306Y202213D01*
X88264Y201891D01*
X87760D01*
X87717Y202213D01*
X87635Y202839D01*
X87238Y203797D01*
X86607Y204619D01*
X85785Y205250D01*
X84827Y205647D01*
X83799Y205782D01*
X82224D01*
X81197Y205647D01*
X80239Y205250D01*
X79417Y204619D01*
X78785Y203797D01*
X78389Y202839D01*
X78306Y202213D01*
X78264Y201891D01*
X77760D01*
X77717Y202213D01*
X77635Y202839D01*
X77238Y203797D01*
X76607Y204619D01*
X75785Y205250D01*
X74827Y205647D01*
X73799Y205782D01*
X72224D01*
X71197Y205647D01*
X70239Y205250D01*
X69416Y204619D01*
X68785Y203797D01*
X68389Y202839D01*
X68306Y202213D01*
X68264Y201891D01*
X67760D01*
X67717Y202213D01*
X67635Y202839D01*
X67238Y203797D01*
X66607Y204619D01*
X65785Y205250D01*
X64827Y205647D01*
X63799Y205782D01*
X62224D01*
X61197Y205647D01*
X60239Y205250D01*
X59417Y204619D01*
X58785Y203797D01*
X58389Y202839D01*
X58306Y202213D01*
X58264Y201891D01*
X57760D01*
X57717Y202213D01*
X57635Y202839D01*
X57238Y203797D01*
X56607Y204619D01*
X55785Y205250D01*
X54827Y205647D01*
X53799Y205782D01*
X52224D01*
X51197Y205647D01*
X50239Y205250D01*
X49417Y204619D01*
X48785Y203797D01*
X48389Y202839D01*
X48306Y202213D01*
X48264Y201891D01*
X47760D01*
X47717Y202213D01*
X47635Y202839D01*
X47238Y203797D01*
X46607Y204619D01*
X45785Y205250D01*
X44827Y205647D01*
X43799Y205782D01*
X42224D01*
X41197Y205647D01*
X40239Y205250D01*
X39417Y204619D01*
X38785Y203797D01*
X38389Y202839D01*
X38306Y202213D01*
X38264Y201891D01*
X37760D01*
X37717Y202213D01*
X37635Y202839D01*
X37238Y203797D01*
X36607Y204619D01*
X35785Y205250D01*
X34827Y205647D01*
X33799Y205782D01*
X32224D01*
X31197Y205647D01*
X30239Y205250D01*
X29416Y204619D01*
X28785Y203797D01*
X28389Y202839D01*
X28253Y201811D01*
X28389Y200783D01*
X28785Y199826D01*
X29416Y199003D01*
X30239Y198372D01*
X31197Y197975D01*
X32224Y197840D01*
X33799D01*
X34827Y197975D01*
X35785Y198372D01*
X36607Y199003D01*
X37238Y199826D01*
X37635Y200783D01*
X37717Y201409D01*
X37760Y201731D01*
X38264D01*
X38306Y201409D01*
X38389Y200783D01*
X38785Y199826D01*
X39417Y199003D01*
X40239Y198372D01*
X41197Y197975D01*
X42224Y197840D01*
X43799D01*
X44827Y197975D01*
X45785Y198372D01*
X46607Y199003D01*
X47238Y199826D01*
X47635Y200783D01*
X47717Y201409D01*
X47760Y201731D01*
X48264D01*
X48306Y201409D01*
X48389Y200783D01*
X48785Y199826D01*
X49417Y199003D01*
X50239Y198372D01*
X51197Y197975D01*
X52224Y197840D01*
X53799D01*
X54827Y197975D01*
X55785Y198372D01*
X56607Y199003D01*
X57238Y199826D01*
X57635Y200783D01*
X57717Y201409D01*
X57760Y201731D01*
X58264D01*
X58306Y201409D01*
X58389Y200783D01*
X58785Y199826D01*
X59417Y199003D01*
X60239Y198372D01*
X61197Y197975D01*
X62224Y197840D01*
X63799D01*
X64827Y197975D01*
X65785Y198372D01*
X66607Y199003D01*
X67238Y199826D01*
X67635Y200783D01*
X67717Y201409D01*
X67760Y201731D01*
X68264D01*
X68306Y201409D01*
X68389Y200783D01*
X68785Y199826D01*
X69416Y199003D01*
X70239Y198372D01*
X71197Y197975D01*
X72224Y197840D01*
X73799D01*
X74827Y197975D01*
X75785Y198372D01*
X76607Y199003D01*
X77238Y199826D01*
X77635Y200783D01*
X77717Y201409D01*
X77760Y201731D01*
X78264D01*
X78306Y201409D01*
X78389Y200783D01*
X78785Y199826D01*
X79417Y199003D01*
X80239Y198372D01*
X81197Y197975D01*
X82224Y197840D01*
X83799D01*
X84827Y197975D01*
X85785Y198372D01*
X86607Y199003D01*
X87238Y199826D01*
X87635Y200783D01*
X87717Y201409D01*
X87760Y201731D01*
X88264D01*
X88306Y201409D01*
X88389Y200783D01*
X88785Y199826D01*
X89416Y199003D01*
X90239Y198372D01*
X91197Y197975D01*
X92224Y197840D01*
X93799D01*
X94827Y197975D01*
X95785Y198372D01*
X96607Y199003D01*
X97238Y199826D01*
X97635Y200783D01*
X97717Y201409D01*
X97760Y201731D01*
X98264D01*
X98306Y201409D01*
X98389Y200783D01*
X98785Y199826D01*
X99417Y199003D01*
X100239Y198372D01*
X101197Y197975D01*
X102224Y197840D01*
X103799D01*
X104827Y197975D01*
X105785Y198372D01*
X106607Y199003D01*
X107238Y199826D01*
X107635Y200783D01*
X107717Y201409D01*
X107760Y201731D01*
X108264D01*
X108306Y201409D01*
X108389Y200783D01*
X108785Y199826D01*
X109416Y199003D01*
X110239Y198372D01*
X111197Y197975D01*
X112224Y197840D01*
X113799D01*
X114827Y197975D01*
X115785Y198372D01*
X116607Y199003D01*
X117238Y199826D01*
X117635Y200783D01*
X117717Y201409D01*
X117760Y201731D01*
X118264D01*
X118306Y201409D01*
X118389Y200783D01*
X118785Y199826D01*
X119416Y199003D01*
X120239Y198372D01*
X121197Y197975D01*
X122224Y197840D01*
X123799D01*
X124827Y197975D01*
X125785Y198372D01*
X126607Y199003D01*
X127238Y199826D01*
X127635Y200783D01*
X127717Y201409D01*
X127760Y201731D01*
X128264D01*
X128306Y201409D01*
X128389Y200783D01*
X128785Y199826D01*
X129417Y199003D01*
X130239Y198372D01*
X131197Y197975D01*
X132224Y197840D01*
X133799D01*
X134827Y197975D01*
X135785Y198372D01*
X136607Y199003D01*
X137238Y199826D01*
X137635Y200783D01*
X137717Y201409D01*
X137760Y201731D01*
X138264D01*
X138306Y201409D01*
X138389Y200783D01*
X138785Y199826D01*
X139417Y199003D01*
X140239Y198372D01*
X141197Y197975D01*
X142224Y197840D01*
X143799D01*
X144827Y197975D01*
X145785Y198372D01*
X146607Y199003D01*
X147238Y199826D01*
X147635Y200783D01*
X147717Y201409D01*
X147760Y201731D01*
X148264D01*
X148306Y201409D01*
X148389Y200783D01*
X148785Y199826D01*
X149416Y199003D01*
X150239Y198372D01*
X151197Y197975D01*
X152224Y197840D01*
X153799D01*
X154827Y197975D01*
X155785Y198372D01*
X156607Y199003D01*
X157238Y199826D01*
X157635Y200783D01*
X157717Y201409D01*
X157760Y201731D01*
X158264D01*
X158306Y201409D01*
X158389Y200783D01*
X158785Y199826D01*
X159416Y199003D01*
X160239Y198372D01*
X161197Y197975D01*
X162224Y197840D01*
X163799D01*
X164827Y197975D01*
X165785Y198372D01*
X166607Y199003D01*
X167238Y199826D01*
X167635Y200783D01*
X167717Y201409D01*
X167760Y201731D01*
X168264D01*
X168306Y201409D01*
X168389Y200783D01*
X168785Y199826D01*
X169416Y199003D01*
X170239Y198372D01*
X171197Y197975D01*
X172224Y197840D01*
X173799D01*
X174827Y197975D01*
X175785Y198372D01*
X176607Y199003D01*
X177238Y199826D01*
X177635Y200783D01*
X177717Y201409D01*
X177760Y201731D01*
X178264D01*
X178306Y201409D01*
X178389Y200783D01*
X178785Y199826D01*
X179417Y199003D01*
X180239Y198372D01*
X181197Y197975D01*
X182224Y197840D01*
X183799D01*
X184827Y197975D01*
X185785Y198372D01*
X186607Y199003D01*
X187238Y199826D01*
X187635Y200783D01*
X187717Y201409D01*
X187760Y201731D01*
X188264D01*
X188306Y201409D01*
X188389Y200783D01*
X188785Y199826D01*
X189417Y199003D01*
X190239Y198372D01*
X191197Y197975D01*
X192224Y197840D01*
X193799D01*
X194827Y197975D01*
X195785Y198372D01*
X196607Y199003D01*
X197238Y199826D01*
X197635Y200783D01*
X197717Y201409D01*
X197760Y201731D01*
X198264D01*
X198306Y201409D01*
X198389Y200783D01*
X198785Y199826D01*
X199416Y199003D01*
X200239Y198372D01*
X201197Y197975D01*
X202224Y197840D01*
X203799D01*
X204827Y197975D01*
X205785Y198372D01*
X206607Y199003D01*
X207238Y199826D01*
X207635Y200783D01*
X207717Y201409D01*
X207760Y201731D01*
X208264D01*
X208306Y201409D01*
X208389Y200783D01*
X208785Y199826D01*
X209417Y199003D01*
X210239Y198372D01*
X211197Y197975D01*
X212224Y197840D01*
X213799D01*
X214827Y197975D01*
X215785Y198372D01*
X216607Y199003D01*
X217238Y199826D01*
X217635Y200783D01*
X217717Y201409D01*
X217760Y201731D01*
X218264D01*
X218306Y201409D01*
X218389Y200783D01*
X218785Y199826D01*
X219416Y199003D01*
X220239Y198372D01*
X221197Y197975D01*
X222224Y197840D01*
X223799D01*
X224827Y197975D01*
X225785Y198372D01*
X226607Y199003D01*
X227238Y199826D01*
X227635Y200783D01*
X227770Y201811D01*
X227635Y202839D01*
X227238Y203797D01*
X226607Y204619D01*
X225785Y205250D01*
X224827Y205647D01*
X223799Y205782D01*
D02*
G37*
G36*
X242126Y217356D02*
X240458Y217224D01*
X238831Y216834D01*
X237285Y216194D01*
X235859Y215319D01*
X234586Y214233D01*
X233500Y212960D01*
X232625Y211534D01*
X231985Y209988D01*
X231594Y208361D01*
X231463Y206693D01*
X231594Y205025D01*
X231985Y203398D01*
X232625Y201852D01*
X233500Y200426D01*
X234586Y199153D01*
X235859Y198066D01*
X237285Y197192D01*
X238831Y196552D01*
X240458Y196161D01*
X242126Y196030D01*
X243794Y196161D01*
X245421Y196552D01*
X246967Y197192D01*
X248393Y198066D01*
X249666Y199153D01*
X250752Y200426D01*
X251627Y201852D01*
X252267Y203398D01*
X252658Y205025D01*
X252789Y206693D01*
X252658Y208361D01*
X252267Y209988D01*
X251627Y211534D01*
X250752Y212960D01*
X249666Y214233D01*
X248393Y215319D01*
X246967Y216194D01*
X245421Y216834D01*
X243794Y217224D01*
X242126Y217356D01*
D02*
G37*
G36*
X13780D02*
X12111Y217224D01*
X10485Y216834D01*
X8939Y216194D01*
X7512Y215319D01*
X6240Y214233D01*
X5153Y212960D01*
X4279Y211534D01*
X3639Y209988D01*
X3248Y208361D01*
X3117Y206693D01*
X3248Y205025D01*
X3639Y203398D01*
X4279Y201852D01*
X5153Y200426D01*
X6240Y199153D01*
X7512Y198066D01*
X8939Y197192D01*
X10485Y196552D01*
X12111Y196161D01*
X13780Y196030D01*
X15448Y196161D01*
X17075Y196552D01*
X18620Y197192D01*
X20047Y198066D01*
X21319Y199153D01*
X22406Y200426D01*
X23280Y201852D01*
X23920Y203398D01*
X24311Y205025D01*
X24442Y206693D01*
X24311Y208361D01*
X23920Y209988D01*
X23280Y211534D01*
X22406Y212960D01*
X21319Y214233D01*
X20047Y215319D01*
X18620Y216194D01*
X17075Y216834D01*
X15448Y217224D01*
X13780Y217356D01*
D02*
G37*
G36*
X175984Y193838D02*
X175216Y193685D01*
X174565Y193250D01*
X174287Y192834D01*
X167050D01*
X166867Y193108D01*
X166281Y193500D01*
X165590Y193637D01*
X164899Y193500D01*
X164313Y193108D01*
X163921Y192522D01*
X163784Y191831D01*
X163921Y191139D01*
X164313Y190553D01*
X164899Y190162D01*
X165590Y190024D01*
X166281Y190162D01*
X166867Y190553D01*
X167050Y190827D01*
X174287D01*
X174565Y190411D01*
X175216Y189976D01*
X175984Y189824D01*
X176752Y189976D01*
X177403Y190411D01*
X177839Y191063D01*
X177991Y191831D01*
X177839Y192599D01*
X177403Y193250D01*
X176752Y193685D01*
X175984Y193838D01*
D02*
G37*
G36*
X188976Y191176D02*
X188285Y191039D01*
X187699Y190647D01*
X187308Y190061D01*
X187170Y189370D01*
X187308Y188679D01*
X187548Y188318D01*
X187281Y187818D01*
X135374D01*
X135374Y187818D01*
X134913Y187727D01*
X134522Y187466D01*
X123649Y176592D01*
X123563Y176610D01*
X122872Y176472D01*
X122286Y176080D01*
X121894Y175494D01*
X121757Y174803D01*
X121894Y174112D01*
X122286Y173526D01*
X122872Y173134D01*
X123563Y172997D01*
X123868Y173057D01*
X124009Y172942D01*
X124233Y172620D01*
X124119Y172047D01*
X124256Y171356D01*
X124648Y170770D01*
X125234Y170378D01*
X125925Y170241D01*
X126468Y170349D01*
X126777Y170203D01*
X126958Y170006D01*
X127071Y169438D01*
X127463Y168852D01*
X128049Y168460D01*
X128597Y168351D01*
X128937Y167891D01*
X128902Y167717D01*
X129040Y167025D01*
X129431Y166439D01*
X130017Y166048D01*
X130709Y165910D01*
X131400Y166048D01*
X131986Y166439D01*
X132035Y166512D01*
X132881D01*
X157851Y141543D01*
Y139121D01*
X157778Y139073D01*
X157386Y138487D01*
X157249Y137795D01*
X157386Y137104D01*
X157778Y136518D01*
X158364Y136126D01*
X159055Y135989D01*
X159746Y136126D01*
X160332Y136518D01*
X160724Y137104D01*
X160862Y137795D01*
X160724Y138487D01*
X160332Y139073D01*
X160259Y139121D01*
Y142042D01*
X160168Y142502D01*
X159907Y142893D01*
X159907Y142893D01*
X134232Y168568D01*
X133841Y168829D01*
X133380Y168921D01*
X133380Y168921D01*
X132035D01*
X131986Y168994D01*
X131400Y169385D01*
X130852Y169494D01*
X130512Y169955D01*
X130546Y170129D01*
X130529Y170215D01*
X131551Y171237D01*
X217717D01*
Y169783D01*
X222441D01*
Y175098D01*
X217717D01*
Y173645D01*
X131052D01*
X130591Y173554D01*
X130200Y173293D01*
X130200Y173292D01*
X128826Y171918D01*
X128740Y171936D01*
X128412Y171870D01*
X128017Y172263D01*
X128007Y172426D01*
X133904Y178323D01*
X217717D01*
Y176870D01*
X222441D01*
Y182185D01*
X217717D01*
Y180732D01*
X166862D01*
X166653Y181122D01*
X166650Y181232D01*
X166781Y181890D01*
X166644Y182581D01*
X166252Y183167D01*
X165666Y183559D01*
X164975Y183696D01*
X164283Y183559D01*
X163697Y183167D01*
X163306Y182581D01*
X163168Y181890D01*
X163299Y181232D01*
X163296Y181122D01*
X163087Y180732D01*
X133406D01*
X133405Y180732D01*
X132945Y180640D01*
X132554Y180379D01*
X126011Y173837D01*
X125925Y173854D01*
X125620Y173793D01*
X125479Y173908D01*
X125255Y174230D01*
X125369Y174803D01*
X125352Y174889D01*
X135873Y185410D01*
X217717D01*
Y183957D01*
X222441D01*
Y189272D01*
X217717D01*
Y187818D01*
X190672D01*
X190404Y188318D01*
X190645Y188679D01*
X190783Y189370D01*
X190645Y190061D01*
X190254Y190647D01*
X189668Y191039D01*
X188976Y191176D01*
D02*
G37*
G36*
X34449Y192421D02*
X29724D01*
Y191570D01*
X23425D01*
X22734Y191433D01*
X22148Y191041D01*
X19099Y187992D01*
X16339D01*
Y184055D01*
Y180315D01*
Y176575D01*
X19099D01*
X22148Y173526D01*
X22734Y173134D01*
X23425Y172997D01*
X29724D01*
Y172146D01*
X34449D01*
Y177461D01*
X29724D01*
Y176610D01*
X24173D01*
X23031Y177751D01*
Y180477D01*
X29724D01*
Y179626D01*
X34449D01*
Y184941D01*
X29724D01*
Y184090D01*
X23031D01*
Y186816D01*
X24173Y187957D01*
X29724D01*
Y187106D01*
X34449D01*
Y192421D01*
D02*
G37*
G36*
X41535D02*
X36811D01*
Y187106D01*
X40684D01*
X43841Y183950D01*
X43650Y183488D01*
X41535D01*
Y184941D01*
X36811D01*
Y179626D01*
X41535D01*
Y181079D01*
X44484D01*
X49685Y175879D01*
X49494Y175417D01*
X41535D01*
Y177461D01*
X36811D01*
Y172146D01*
X41535D01*
Y173008D01*
X62359D01*
X72682Y162685D01*
X72665Y162598D01*
X72803Y161907D01*
X73194Y161321D01*
X73780Y160930D01*
X74472Y160792D01*
X75163Y160930D01*
X75749Y161321D01*
X76141Y161907D01*
X76278Y162598D01*
X76141Y163290D01*
X75749Y163876D01*
X75163Y164267D01*
X74472Y164405D01*
X74385Y164388D01*
X73294Y165479D01*
X73458Y166022D01*
X73588Y166048D01*
X74174Y166439D01*
X74566Y167025D01*
X74595Y167173D01*
X75074Y167318D01*
X76164Y166228D01*
X76146Y166142D01*
X76284Y165451D01*
X76675Y164864D01*
X77262Y164473D01*
X77953Y164335D01*
X78644Y164473D01*
X79230Y164864D01*
X79622Y165451D01*
X79759Y166142D01*
X79622Y166833D01*
X79230Y167419D01*
X78644Y167811D01*
X77953Y167948D01*
X77867Y167931D01*
X67387Y178411D01*
X66996Y178672D01*
X66535Y178763D01*
X66535Y178763D01*
X62235D01*
X62002Y179263D01*
X62494Y179904D01*
X62891Y180862D01*
X63026Y181890D01*
X62891Y182917D01*
X62494Y183875D01*
X61863Y184698D01*
X61041Y185329D01*
X60083Y185725D01*
X59055Y185861D01*
X58027Y185725D01*
X57070Y185329D01*
X56247Y184698D01*
X55616Y183875D01*
X55220Y182917D01*
X55084Y181890D01*
X55220Y180862D01*
X55616Y179904D01*
X56108Y179263D01*
X55875Y178763D01*
X52434D01*
X41535Y189661D01*
Y192421D01*
D02*
G37*
G36*
X229528Y189272D02*
X224803D01*
Y183957D01*
X229528D01*
Y184808D01*
X232716D01*
X233465Y184060D01*
Y181334D01*
X229528D01*
Y182185D01*
X224803D01*
Y176870D01*
X229528D01*
Y177721D01*
X233465D01*
Y174996D01*
X232716Y174247D01*
X229528D01*
Y175098D01*
X224803D01*
Y169783D01*
X229528D01*
Y170635D01*
X233465D01*
X234156Y170772D01*
X234742Y171164D01*
X237397Y173819D01*
X240158D01*
Y177559D01*
Y181299D01*
Y185236D01*
X237397D01*
X234742Y187891D01*
X234156Y188283D01*
X233465Y188420D01*
X229528D01*
Y189272D01*
D02*
G37*
G36*
X87786Y180107D02*
X87095Y179970D01*
X86509Y179578D01*
X86117Y178992D01*
X85980Y178301D01*
X86117Y177609D01*
X86509Y177023D01*
X87095Y176632D01*
X87786Y176494D01*
X88477Y176632D01*
X89063Y177023D01*
X89455Y177609D01*
X89592Y178301D01*
X89455Y178992D01*
X89063Y179578D01*
X88477Y179970D01*
X87786Y180107D01*
D02*
G37*
G36*
X86221Y176216D02*
X85529Y176078D01*
X84943Y175687D01*
X84894Y175614D01*
X82214D01*
X82214Y175614D01*
X81753Y175522D01*
X81362Y175261D01*
X81362Y175261D01*
X79995Y173894D01*
X79734Y173503D01*
X79642Y173042D01*
X79642Y173042D01*
Y171150D01*
X79642Y171150D01*
X79734Y170689D01*
X79995Y170299D01*
X84758Y165536D01*
Y147292D01*
X84258Y147140D01*
X84124Y147340D01*
X83538Y147732D01*
X82847Y147869D01*
X82155Y147732D01*
X81569Y147340D01*
X81521Y147267D01*
X70079D01*
X70079Y147267D01*
X69618Y147176D01*
X69227Y146915D01*
X69227Y146915D01*
X33829Y111516D01*
X33580Y111592D01*
X33365Y111704D01*
X33348Y112098D01*
X33364Y112109D01*
X33755Y112695D01*
X33893Y113386D01*
X33755Y114077D01*
X33364Y114663D01*
X32778Y115055D01*
X32087Y115192D01*
X31395Y115055D01*
X30809Y114663D01*
X30418Y114077D01*
X30280Y113386D01*
X30418Y112695D01*
X30809Y112109D01*
X30882Y112060D01*
Y97783D01*
X30809Y97734D01*
X30418Y97148D01*
X30280Y96457D01*
X30418Y95765D01*
X30809Y95179D01*
X31395Y94788D01*
X32087Y94650D01*
X32475Y94728D01*
X32721Y94267D01*
X28039Y89584D01*
X27953Y89602D01*
X27261Y89464D01*
X26676Y89073D01*
X26284Y88486D01*
X26146Y87795D01*
X26284Y87104D01*
X26676Y86518D01*
X27261Y86126D01*
X27579Y86063D01*
Y85553D01*
X27216Y85481D01*
X26630Y85090D01*
X26238Y84504D01*
X26101Y83812D01*
X26238Y83121D01*
X26630Y82535D01*
X27216Y82144D01*
X27418Y82103D01*
Y81594D01*
X27170Y81544D01*
X26584Y81153D01*
X26192Y80567D01*
X26055Y79875D01*
X26192Y79184D01*
X26584Y78598D01*
X27170Y78207D01*
X27861Y78069D01*
X28552Y78207D01*
X29138Y78598D01*
X29187Y78671D01*
X30663D01*
X30663Y78671D01*
X31124Y78763D01*
X31514Y79024D01*
X40028Y87538D01*
X40528Y87331D01*
Y50207D01*
X39042Y48720D01*
X35725D01*
Y43406D01*
X40450D01*
Y46722D01*
X42035Y48307D01*
X42497Y48116D01*
Y44714D01*
X39042Y41259D01*
X35725D01*
Y35944D01*
X40450D01*
Y39261D01*
X44003Y42814D01*
X44465Y42623D01*
Y39183D01*
X39042Y33760D01*
X35725D01*
Y28445D01*
X40450D01*
Y31762D01*
X42225Y33537D01*
X42711Y33316D01*
X42819Y32773D01*
X43211Y32187D01*
X43797Y31796D01*
X44488Y31658D01*
X45180Y31796D01*
X45766Y32187D01*
X46157Y32773D01*
X46295Y33465D01*
X46277Y33551D01*
X46924Y34198D01*
X47453Y34019D01*
X47544Y33561D01*
X47935Y32975D01*
X48521Y32583D01*
X49213Y32446D01*
X49904Y32583D01*
X50490Y32975D01*
X50881Y33561D01*
X51019Y34252D01*
X51002Y34338D01*
X52033Y35369D01*
X52033Y35369D01*
X52294Y35759D01*
X52385Y36220D01*
X52385Y36220D01*
Y97799D01*
X62856Y108270D01*
X63410Y108117D01*
X63468Y107887D01*
X53282Y97702D01*
X53021Y97311D01*
X52930Y96850D01*
X52930Y96850D01*
Y33766D01*
X52055Y32892D01*
X51968Y32909D01*
X51277Y32771D01*
X50691Y32380D01*
X50300Y31794D01*
X50162Y31102D01*
X50300Y30411D01*
X50691Y29825D01*
X51277Y29434D01*
X51968Y29296D01*
X52660Y29434D01*
X53246Y29825D01*
X53637Y30411D01*
X53775Y31102D01*
X53758Y31188D01*
X54985Y32416D01*
X54985Y32416D01*
X55246Y32807D01*
X55338Y33268D01*
X55338Y33268D01*
Y34748D01*
X55682Y34890D01*
X55838Y34924D01*
X56395Y34552D01*
X57087Y34414D01*
X57778Y34552D01*
X58364Y34943D01*
X58612Y35315D01*
X59143Y35210D01*
X59158Y35135D01*
X59549Y34549D01*
X60136Y34158D01*
X60827Y34020D01*
X61518Y34158D01*
X62104Y34549D01*
X62496Y35135D01*
X62633Y35827D01*
X62496Y36518D01*
X62104Y37104D01*
X62031Y37153D01*
Y96407D01*
X72102Y106479D01*
X72189Y106461D01*
X72880Y106599D01*
X73383Y106935D01*
X73914Y106829D01*
X73922Y106789D01*
X74092Y106535D01*
Y101986D01*
X74092Y101985D01*
X74183Y101525D01*
X74444Y101134D01*
X79701Y95877D01*
Y48730D01*
X79434Y48329D01*
X79296Y47638D01*
X79434Y46946D01*
X79825Y46360D01*
X80411Y45969D01*
X81102Y45831D01*
X81794Y45969D01*
X82380Y46360D01*
X82771Y46946D01*
X82909Y47638D01*
X82771Y48329D01*
X82380Y48915D01*
X82110Y49095D01*
Y51893D01*
X82610Y52222D01*
X83071Y52131D01*
X83762Y52268D01*
X84348Y52660D01*
X84740Y53246D01*
X84877Y53937D01*
X84740Y54628D01*
X84348Y55214D01*
X84275Y55263D01*
Y85328D01*
X95490Y96543D01*
X95573Y96559D01*
X96159Y96951D01*
X96551Y97537D01*
X96631Y97944D01*
X97174Y98108D01*
X132748Y62534D01*
X132748Y62534D01*
X133139Y62273D01*
X133600Y62182D01*
X190052D01*
X208245Y43989D01*
Y40551D01*
X208245Y40551D01*
X208336Y40090D01*
X208597Y39700D01*
X215354Y32943D01*
Y29626D01*
X220079D01*
Y34941D01*
X216762D01*
X215491Y36213D01*
X215698Y36713D01*
X220079D01*
Y42028D01*
X216762D01*
X215491Y43299D01*
X215698Y43799D01*
X215712Y43799D01*
X220079D01*
Y49114D01*
X216762D01*
X198489Y67387D01*
X198099Y67648D01*
X197638Y67740D01*
X197638Y67740D01*
X135538D01*
X83922Y119355D01*
X83532Y119616D01*
X83071Y119708D01*
X83071Y119708D01*
X81571D01*
X81523Y119781D01*
X80936Y120173D01*
X80245Y120310D01*
X79788Y120219D01*
X79488Y120669D01*
X79552Y120765D01*
X79689Y121457D01*
X79552Y122148D01*
X79160Y122734D01*
X78574Y123126D01*
X78444Y123151D01*
X78280Y123694D01*
X84569Y129983D01*
X90563D01*
X90707Y129768D01*
X91358Y129332D01*
X92126Y129180D01*
X92894Y129332D01*
X93545Y129768D01*
X93980Y130419D01*
X94133Y131187D01*
X93980Y131955D01*
X93545Y132606D01*
X92894Y133041D01*
X92126Y133194D01*
X91358Y133041D01*
X90707Y132606D01*
X90563Y132391D01*
X84070D01*
X83891Y132355D01*
X83645Y132816D01*
X88844Y138015D01*
X89105Y138406D01*
X89196Y138867D01*
Y144204D01*
X89196Y144204D01*
X89105Y144665D01*
X88844Y145055D01*
X88844Y145055D01*
X87166Y146733D01*
Y165483D01*
X87666Y165690D01*
X89741Y163615D01*
Y155906D01*
X89741Y155905D01*
X89832Y155445D01*
X90093Y155054D01*
X95805Y149342D01*
X95598Y148842D01*
X93637D01*
X91666Y150814D01*
X91683Y150900D01*
X91545Y151591D01*
X91154Y152177D01*
X90567Y152569D01*
X89876Y152706D01*
X89185Y152569D01*
X88599Y152177D01*
X88207Y151591D01*
X88070Y150900D01*
X88207Y150209D01*
X88599Y149623D01*
X89185Y149231D01*
X89876Y149093D01*
X89962Y149111D01*
X92287Y146786D01*
X92287Y146786D01*
X92677Y146525D01*
X93138Y146434D01*
X95564D01*
X98716Y143282D01*
X98571Y142804D01*
X98392Y142768D01*
X97736Y142330D01*
X97298Y141673D01*
X97243Y141399D01*
X99167D01*
Y140899D01*
X99667D01*
Y138975D01*
X99941Y139030D01*
X100597Y139469D01*
X101036Y140125D01*
X101071Y140303D01*
X101550Y140448D01*
X129857Y112141D01*
X130248Y111880D01*
X130709Y111788D01*
X163386D01*
X163386Y111788D01*
X163847Y111880D01*
X164237Y112141D01*
X167630Y115534D01*
X167717Y115516D01*
X168408Y115654D01*
X168994Y116045D01*
X169255Y116436D01*
X169842Y116557D01*
X169927Y116471D01*
X169927Y116471D01*
X170318Y116210D01*
X170779Y116119D01*
X170779Y116119D01*
X241874D01*
X242280Y115139D01*
X242974Y114234D01*
X243879Y113540D01*
X244933Y113104D01*
X246063Y112955D01*
X247194Y113104D01*
X248247Y113540D01*
X249152Y114234D01*
X249846Y115139D01*
X250282Y116192D01*
X250431Y117323D01*
X250282Y118453D01*
X249846Y119507D01*
X249152Y120412D01*
X248247Y121106D01*
X247194Y121542D01*
X246063Y121691D01*
X244933Y121542D01*
X243879Y121106D01*
X242974Y120412D01*
X242280Y119507D01*
X241874Y118527D01*
X171278D01*
X169465Y120340D01*
X169074Y120601D01*
X168613Y120692D01*
X168613Y120692D01*
X140744D01*
X139742Y121694D01*
X139863Y122280D01*
X140254Y122542D01*
X140645Y123128D01*
X140783Y123819D01*
X140645Y124510D01*
X140254Y125096D01*
X139668Y125488D01*
X138976Y125625D01*
X138461Y125523D01*
X138285Y125488D01*
X137925Y125848D01*
X137924Y125855D01*
X137663Y126245D01*
X137222Y126686D01*
X137239Y126772D01*
X137102Y127463D01*
X136710Y128049D01*
X136124Y128440D01*
X135433Y128578D01*
X134742Y128440D01*
X134156Y128049D01*
X133764Y127463D01*
X133627Y126772D01*
X133764Y126080D01*
X134156Y125494D01*
X134742Y125103D01*
X135433Y124965D01*
X135607Y124490D01*
Y122922D01*
X135607Y122922D01*
X135698Y122461D01*
X135959Y122071D01*
X139393Y118637D01*
X139784Y118376D01*
X140245Y118284D01*
X165672D01*
X166002Y117784D01*
X165910Y117323D01*
X165927Y117237D01*
X162887Y114196D01*
X160155D01*
X159947Y114587D01*
X159943Y114696D01*
X160074Y115354D01*
X159937Y116046D01*
X159545Y116632D01*
X158959Y117023D01*
X158268Y117161D01*
X157577Y117023D01*
X156990Y116632D01*
X156942Y116559D01*
X131995D01*
X92585Y155969D01*
X92831Y156430D01*
X93307Y156335D01*
X93393Y156352D01*
X116345Y133400D01*
X116345Y133400D01*
X116735Y133139D01*
X117196Y133048D01*
X144343D01*
X144392Y132975D01*
X144978Y132583D01*
X145669Y132446D01*
X146361Y132583D01*
X146947Y132975D01*
X147338Y133561D01*
X147476Y134252D01*
X147338Y134943D01*
X146947Y135529D01*
X146361Y135921D01*
X145669Y136058D01*
X144978Y135921D01*
X144392Y135529D01*
X144343Y135456D01*
X117695D01*
X95096Y158055D01*
X95113Y158141D01*
X94976Y158832D01*
X94584Y159418D01*
X93998Y159810D01*
X93307Y159948D01*
X92649Y159817D01*
X92539Y159820D01*
X92149Y160029D01*
Y164114D01*
X92149Y164114D01*
X92057Y164575D01*
X91796Y164966D01*
X91796Y164966D01*
X84801Y171961D01*
X84818Y172047D01*
X84688Y172701D01*
X84771Y172807D01*
X85080Y173041D01*
X85529Y172741D01*
X86221Y172603D01*
X86912Y172741D01*
X87498Y173132D01*
X87889Y173718D01*
X88027Y174409D01*
X87889Y175101D01*
X87498Y175687D01*
X86912Y176078D01*
X86221Y176216D01*
D02*
G37*
G36*
X11614Y187992D02*
X4921D01*
Y184055D01*
Y180315D01*
Y176575D01*
X6461D01*
Y172047D01*
X6599Y171356D01*
X6990Y170770D01*
X7576Y170378D01*
X8268Y170241D01*
X8959Y170378D01*
X9545Y170770D01*
X9937Y171356D01*
X10074Y172047D01*
Y176575D01*
X11614D01*
Y180315D01*
Y184055D01*
Y187992D01*
D02*
G37*
G36*
X59055Y172081D02*
X58027Y171946D01*
X57070Y171549D01*
X56247Y170918D01*
X55616Y170096D01*
X55220Y169138D01*
X55084Y168110D01*
X55220Y167083D01*
X55616Y166125D01*
X56247Y165302D01*
X57070Y164671D01*
X58027Y164275D01*
X59055Y164139D01*
X60083Y164275D01*
X61041Y164671D01*
X61863Y165302D01*
X62494Y166125D01*
X62891Y167083D01*
X63026Y168110D01*
X62891Y169138D01*
X62494Y170096D01*
X61863Y170918D01*
X61041Y171549D01*
X60083Y171946D01*
X59055Y172081D01*
D02*
G37*
G36*
X194201Y158617D02*
Y157193D01*
X195624D01*
X195570Y157467D01*
X195131Y158124D01*
X194475Y158562D01*
X194201Y158617D01*
D02*
G37*
G36*
X193201D02*
X192927Y158562D01*
X192270Y158124D01*
X191832Y157467D01*
X191777Y157193D01*
X193201D01*
Y158617D01*
D02*
G37*
G36*
X70079Y160074D02*
X69388Y159937D01*
X68801Y159545D01*
X68410Y158959D01*
X68272Y158268D01*
X68410Y157577D01*
X68801Y156990D01*
X69388Y156599D01*
X70079Y156461D01*
X70770Y156599D01*
X71356Y156990D01*
X71748Y157577D01*
X71885Y158268D01*
X71748Y158959D01*
X71356Y159545D01*
X70770Y159937D01*
X70079Y160074D01*
D02*
G37*
G36*
X195624Y156193D02*
X194201D01*
Y154769D01*
X194475Y154824D01*
X195131Y155262D01*
X195570Y155919D01*
X195624Y156193D01*
D02*
G37*
G36*
X193201D02*
X191777D01*
X191832Y155919D01*
X192270Y155262D01*
X192927Y154824D01*
X193201Y154769D01*
Y156193D01*
D02*
G37*
G36*
X251575Y185236D02*
X244882D01*
Y181299D01*
Y177559D01*
Y173819D01*
X246422D01*
Y160788D01*
X238487Y152852D01*
X238095Y152266D01*
X237957Y151575D01*
Y133622D01*
X238095Y132931D01*
X238487Y132345D01*
X242000Y128831D01*
X241844Y128453D01*
X241695Y127323D01*
X241844Y126192D01*
X242280Y125139D01*
X242974Y124234D01*
X243879Y123540D01*
X244933Y123104D01*
X246063Y122955D01*
X247194Y123104D01*
X248247Y123540D01*
X249152Y124234D01*
X249846Y125139D01*
X250282Y126192D01*
X250431Y127323D01*
X250282Y128453D01*
X249846Y129507D01*
X249152Y130412D01*
X248247Y131106D01*
X247194Y131542D01*
X246063Y131691D01*
X244933Y131542D01*
X244555Y131386D01*
X241570Y134370D01*
Y135546D01*
X242070Y135646D01*
X242280Y135139D01*
X242974Y134234D01*
X243879Y133540D01*
X244933Y133104D01*
X246063Y132955D01*
X247194Y133104D01*
X248247Y133540D01*
X249152Y134234D01*
X249846Y135139D01*
X250282Y136192D01*
X250431Y137323D01*
X250282Y138453D01*
X249846Y139507D01*
X249152Y140411D01*
X248247Y141106D01*
X247194Y141542D01*
X246063Y141691D01*
X244933Y141542D01*
X243879Y141106D01*
X242974Y140411D01*
X242280Y139507D01*
X242070Y139000D01*
X241570Y139099D01*
Y145546D01*
X242070Y145646D01*
X242280Y145139D01*
X242974Y144234D01*
X243879Y143540D01*
X244933Y143104D01*
X246063Y142955D01*
X247194Y143104D01*
X248247Y143540D01*
X249152Y144234D01*
X249846Y145139D01*
X250282Y146192D01*
X250431Y147323D01*
X250282Y148453D01*
X249846Y149507D01*
X249152Y150411D01*
X248247Y151106D01*
X247194Y151542D01*
X246063Y151691D01*
X244933Y151542D01*
X243879Y151106D01*
X242974Y150411D01*
X242280Y149507D01*
X242070Y149000D01*
X241570Y149099D01*
Y150827D01*
X249506Y158762D01*
X249897Y159348D01*
X250035Y160039D01*
Y173819D01*
X251575D01*
Y177559D01*
Y181299D01*
Y185236D01*
D02*
G37*
G36*
X28740Y149149D02*
X28049Y149011D01*
X27463Y148620D01*
X27071Y148034D01*
X26934Y147343D01*
X27071Y146651D01*
X27463Y146065D01*
X28049Y145674D01*
X28464Y145591D01*
X28521Y145580D01*
Y145070D01*
X28464Y145059D01*
X28049Y144976D01*
X27463Y144584D01*
X27071Y143998D01*
X26934Y143307D01*
X27071Y142616D01*
X27463Y142030D01*
X28049Y141638D01*
X28740Y141501D01*
X29431Y141638D01*
X30018Y142030D01*
X30409Y142616D01*
X30547Y143307D01*
X30409Y143998D01*
X30018Y144584D01*
X29431Y144976D01*
X29017Y145059D01*
X28959Y145070D01*
Y145580D01*
X29017Y145591D01*
X29431Y145674D01*
X30018Y146065D01*
X30409Y146651D01*
X30547Y147343D01*
X30409Y148034D01*
X30018Y148620D01*
X29431Y149011D01*
X28740Y149149D01*
D02*
G37*
G36*
X98667Y140399D02*
X97243D01*
X97298Y140125D01*
X97736Y139469D01*
X98392Y139030D01*
X98667Y138975D01*
Y140399D01*
D02*
G37*
G36*
X96850Y163224D02*
X96159Y163086D01*
X95573Y162695D01*
X95182Y162109D01*
X95044Y161417D01*
X95182Y160726D01*
X95573Y160140D01*
X96159Y159748D01*
X96850Y159611D01*
X96937Y159628D01*
X119621Y136944D01*
X120012Y136683D01*
X120472Y136591D01*
X120473Y136591D01*
X153398D01*
X153447Y136518D01*
X154033Y136126D01*
X154724Y135989D01*
X155416Y136126D01*
X156002Y136518D01*
X156393Y137104D01*
X156531Y137795D01*
X156393Y138487D01*
X156002Y139073D01*
X155416Y139464D01*
X154724Y139602D01*
X154033Y139464D01*
X153447Y139073D01*
X153398Y138999D01*
X120971D01*
X98640Y161331D01*
X98657Y161417D01*
X98519Y162109D01*
X98128Y162695D01*
X97542Y163086D01*
X96850Y163224D01*
D02*
G37*
G36*
X171457Y137043D02*
X170765Y136905D01*
X170179Y136513D01*
X169788Y135927D01*
X169650Y135236D01*
X169788Y134545D01*
X170179Y133959D01*
X170765Y133567D01*
X171457Y133430D01*
X172148Y133567D01*
X172734Y133959D01*
X173126Y134545D01*
X173263Y135236D01*
X173126Y135927D01*
X172734Y136513D01*
X172148Y136905D01*
X171457Y137043D01*
D02*
G37*
G36*
X162402Y131137D02*
X161710Y131000D01*
X161124Y130608D01*
X160733Y130022D01*
X160595Y129331D01*
X160733Y128639D01*
X161124Y128053D01*
X161710Y127662D01*
X162402Y127524D01*
X163093Y127662D01*
X163679Y128053D01*
X164070Y128639D01*
X164208Y129331D01*
X164070Y130022D01*
X163679Y130608D01*
X163093Y131000D01*
X162402Y131137D01*
D02*
G37*
G36*
X158071D02*
X157380Y131000D01*
X156794Y130608D01*
X156402Y130022D01*
X156264Y129331D01*
X156402Y128639D01*
X156794Y128053D01*
X157380Y127662D01*
X158071Y127524D01*
X158762Y127662D01*
X159348Y128053D01*
X159740Y128639D01*
X159877Y129331D01*
X159740Y130022D01*
X159348Y130608D01*
X158762Y131000D01*
X158071Y131137D01*
D02*
G37*
G36*
X179043Y125743D02*
Y124319D01*
X180467D01*
X180412Y124593D01*
X179974Y125250D01*
X179317Y125688D01*
X179043Y125743D01*
D02*
G37*
G36*
X178043D02*
X177769Y125688D01*
X177113Y125250D01*
X176674Y124593D01*
X176620Y124319D01*
X178043D01*
Y125743D01*
D02*
G37*
G36*
X162402Y126806D02*
X161710Y126669D01*
X161124Y126277D01*
X160733Y125691D01*
X160595Y125000D01*
X160733Y124309D01*
X161124Y123723D01*
X161710Y123331D01*
X162402Y123194D01*
X163093Y123331D01*
X163679Y123723D01*
X164070Y124309D01*
X164208Y125000D01*
X164070Y125691D01*
X163679Y126277D01*
X163093Y126669D01*
X162402Y126806D01*
D02*
G37*
G36*
X158071D02*
X157380Y126669D01*
X156794Y126277D01*
X156402Y125691D01*
X156264Y125000D01*
X156402Y124309D01*
X156794Y123723D01*
X157380Y123331D01*
X158071Y123194D01*
X158762Y123331D01*
X159348Y123723D01*
X159740Y124309D01*
X159877Y125000D01*
X159740Y125691D01*
X159348Y126277D01*
X158762Y126669D01*
X158071Y126806D01*
D02*
G37*
G36*
X180467Y123319D02*
X179043D01*
Y121895D01*
X179317Y121950D01*
X179974Y122388D01*
X180412Y123045D01*
X180467Y123319D01*
D02*
G37*
G36*
X178043D02*
X176620D01*
X176674Y123045D01*
X177113Y122388D01*
X177769Y121950D01*
X178043Y121895D01*
Y123319D01*
D02*
G37*
G36*
X110236Y124416D02*
X109545Y124278D01*
X108959Y123887D01*
X108567Y123301D01*
X108430Y122609D01*
X108450Y122507D01*
X102432Y116359D01*
X102362Y116373D01*
X101671Y116236D01*
X101085Y115844D01*
X100693Y115258D01*
X100556Y114567D01*
X100693Y113876D01*
X101085Y113290D01*
X101671Y112898D01*
X102362Y112761D01*
X103053Y112898D01*
X103639Y113290D01*
X104031Y113876D01*
X104169Y114567D01*
X104148Y114670D01*
X110167Y120817D01*
X110236Y120803D01*
X110927Y120940D01*
X111513Y121332D01*
X111905Y121918D01*
X112043Y122609D01*
X111905Y123301D01*
X111513Y123887D01*
X110927Y124278D01*
X110236Y124416D01*
D02*
G37*
G36*
X99954Y124319D02*
X99186Y124166D01*
X98535Y123731D01*
X98100Y123080D01*
X97947Y122312D01*
X98100Y121544D01*
X98535Y120892D01*
X99186Y120457D01*
X99954Y120305D01*
X100722Y120457D01*
X101373Y120892D01*
X101808Y121544D01*
X101961Y122312D01*
X101808Y123080D01*
X101373Y123731D01*
X100722Y124166D01*
X99954Y124319D01*
D02*
G37*
G36*
X27953Y115488D02*
X27261Y115350D01*
X26676Y114958D01*
X26284Y114372D01*
X26146Y113681D01*
X26284Y112990D01*
X26676Y112404D01*
X27261Y112012D01*
X27953Y111875D01*
X28644Y112012D01*
X29230Y112404D01*
X29622Y112990D01*
X29759Y113681D01*
X29622Y114372D01*
X29230Y114958D01*
X28644Y115350D01*
X27953Y115488D01*
D02*
G37*
G36*
X167717Y114011D02*
X167025Y113874D01*
X166439Y113482D01*
X166048Y112896D01*
X165910Y112205D01*
X166048Y111513D01*
X166439Y110927D01*
X167025Y110536D01*
X167717Y110398D01*
X168408Y110536D01*
X168994Y110927D01*
X169385Y111513D01*
X169523Y112205D01*
X169385Y112896D01*
X168994Y113482D01*
X168408Y113874D01*
X167717Y114011D01*
D02*
G37*
G36*
X120472Y112043D02*
X119781Y111905D01*
X119195Y111513D01*
X118804Y110927D01*
X118671Y110259D01*
X99715D01*
X99666Y110332D01*
X99080Y110724D01*
X98388Y110862D01*
X97697Y110724D01*
X97111Y110332D01*
X96720Y109746D01*
X96582Y109055D01*
X96720Y108364D01*
X97111Y107778D01*
X97697Y107386D01*
X98388Y107249D01*
X99080Y107386D01*
X99666Y107778D01*
X99715Y107851D01*
X119291D01*
X119291Y107851D01*
X119752Y107943D01*
X120143Y108204D01*
X120386Y108447D01*
X120472Y108430D01*
X121164Y108567D01*
X121750Y108959D01*
X122141Y109545D01*
X122279Y110236D01*
X122141Y110927D01*
X121750Y111513D01*
X121164Y111905D01*
X120472Y112043D01*
D02*
G37*
G36*
X142126Y110468D02*
X141435Y110330D01*
X140849Y109939D01*
X140457Y109353D01*
X140320Y108661D01*
X140457Y107970D01*
X140849Y107384D01*
X141435Y106993D01*
X142126Y106855D01*
X142817Y106993D01*
X143403Y107384D01*
X143795Y107970D01*
X143932Y108661D01*
X143795Y109353D01*
X143403Y109939D01*
X142817Y110330D01*
X142126Y110468D01*
D02*
G37*
G36*
X246063Y111691D02*
X244933Y111542D01*
X243879Y111106D01*
X242974Y110412D01*
X242280Y109507D01*
X241844Y108453D01*
X241695Y107323D01*
X241844Y106192D01*
X242280Y105139D01*
X242974Y104234D01*
X243879Y103540D01*
X244933Y103104D01*
X246063Y102955D01*
X247194Y103104D01*
X248247Y103540D01*
X249152Y104234D01*
X249846Y105139D01*
X250282Y106192D01*
X250431Y107323D01*
X250282Y108453D01*
X249846Y109507D01*
X249152Y110412D01*
X248247Y111106D01*
X247194Y111542D01*
X246063Y111691D01*
D02*
G37*
G36*
X111896Y106531D02*
X111205Y106393D01*
X110619Y106002D01*
X110228Y105416D01*
X110090Y104724D01*
X110228Y104033D01*
X110619Y103447D01*
X110648Y103428D01*
X110676Y102930D01*
X107782Y100037D01*
X107577Y99996D01*
X106990Y99604D01*
X106599Y99018D01*
X106461Y98327D01*
X106599Y97636D01*
X106990Y97049D01*
X107577Y96658D01*
X108268Y96520D01*
X108959Y96658D01*
X109545Y97049D01*
X109937Y97636D01*
X110074Y98327D01*
X109975Y98823D01*
X112748Y101596D01*
X113009Y101987D01*
X113101Y102448D01*
X113101Y102448D01*
Y103398D01*
X113174Y103447D01*
X113565Y104033D01*
X113703Y104724D01*
X113565Y105416D01*
X113174Y106002D01*
X112588Y106393D01*
X111896Y106531D01*
D02*
G37*
G36*
X246063Y101691D02*
X244933Y101542D01*
X243879Y101106D01*
X242974Y100411D01*
X242280Y99507D01*
X241844Y98453D01*
X241695Y97323D01*
X241844Y96192D01*
X242280Y95139D01*
X242974Y94234D01*
X243879Y93540D01*
X244933Y93104D01*
X246063Y92955D01*
X247194Y93104D01*
X248247Y93540D01*
X249152Y94234D01*
X249846Y95139D01*
X250282Y96192D01*
X250431Y97323D01*
X250282Y98453D01*
X249846Y99507D01*
X249152Y100411D01*
X248247Y101106D01*
X247194Y101542D01*
X246063Y101691D01*
D02*
G37*
G36*
X134646Y93541D02*
X133141Y93393D01*
X131693Y92954D01*
X130360Y92241D01*
X129191Y91282D01*
X128232Y90113D01*
X127519Y88779D01*
X127080Y87332D01*
X126931Y85827D01*
X127080Y84322D01*
X127519Y82875D01*
X128232Y81541D01*
X129191Y80372D01*
X130360Y79413D01*
X131693Y78700D01*
X133141Y78261D01*
X134646Y78113D01*
X136151Y78261D01*
X137598Y78700D01*
X138932Y79413D01*
X140101Y80372D01*
X141060Y81541D01*
X141773Y82875D01*
X142212Y84322D01*
X142360Y85827D01*
X142212Y87332D01*
X141773Y88779D01*
X141060Y90113D01*
X140101Y91282D01*
X138932Y92241D01*
X137598Y92954D01*
X136151Y93393D01*
X134646Y93541D01*
D02*
G37*
G36*
X223622Y79300D02*
X222764Y79187D01*
X221964Y78856D01*
X221277Y78329D01*
X220750Y77642D01*
X220419Y76842D01*
X220306Y75984D01*
X220419Y75126D01*
X220750Y74326D01*
X221277Y73640D01*
X221964Y73113D01*
X222764Y72781D01*
X223622Y72668D01*
X224480Y72781D01*
X225280Y73113D01*
X225967Y73640D01*
X226494Y74326D01*
X226825Y75126D01*
X226938Y75984D01*
X226825Y76842D01*
X226494Y77642D01*
X225967Y78329D01*
X225280Y78856D01*
X224480Y79187D01*
X223622Y79300D01*
D02*
G37*
G36*
X28839Y52397D02*
X28147Y52259D01*
X27561Y51868D01*
X27170Y51282D01*
X27032Y50591D01*
X27167Y49915D01*
X27167Y49893D01*
X26907Y49393D01*
X26474Y49307D01*
X25888Y48915D01*
X25497Y48329D01*
X25384Y47762D01*
X24843Y47869D01*
X23031D01*
X22340Y47732D01*
X21754Y47340D01*
X18705Y44291D01*
X15945D01*
Y40354D01*
Y36614D01*
Y32874D01*
X18705D01*
X21754Y29825D01*
X22340Y29434D01*
X23031Y29296D01*
X28639D01*
Y28445D01*
X33363D01*
Y33760D01*
X28639D01*
Y32909D01*
X23780D01*
X22638Y34051D01*
Y36795D01*
X28639D01*
Y35944D01*
X33363D01*
Y41259D01*
X28639D01*
Y40408D01*
X22638D01*
Y43115D01*
X23780Y44257D01*
X24094D01*
X24746Y43605D01*
X25333Y43213D01*
X26024Y43075D01*
X28307D01*
X28998Y43213D01*
X29286Y43406D01*
X33363D01*
Y48720D01*
X30129D01*
X29977Y49220D01*
X30116Y49313D01*
X30507Y49899D01*
X30645Y50591D01*
X30507Y51282D01*
X30116Y51868D01*
X29530Y52259D01*
X28839Y52397D01*
D02*
G37*
G36*
X190945Y56331D02*
X189969Y56203D01*
X189059Y55826D01*
X188277Y55227D01*
X187678Y54445D01*
X187301Y53535D01*
X187197Y52742D01*
X177435Y42981D01*
X177354Y43014D01*
X176378Y43143D01*
X175402Y43014D01*
X174492Y42637D01*
X173710Y42038D01*
X173111Y41256D01*
X172734Y40346D01*
X172606Y39370D01*
X172734Y38394D01*
X173111Y37484D01*
X173710Y36703D01*
X174492Y36103D01*
X175402Y35726D01*
X176378Y35598D01*
X177354Y35726D01*
X178264Y36103D01*
X179045Y36703D01*
X179387Y37148D01*
X179721Y37405D01*
X191128Y48811D01*
X191921Y48915D01*
X192831Y49292D01*
X193612Y49892D01*
X194212Y50673D01*
X194589Y51583D01*
X194717Y52559D01*
X194589Y53535D01*
X194212Y54445D01*
X193612Y55227D01*
X192831Y55826D01*
X191921Y56203D01*
X190945Y56331D01*
D02*
G37*
G36*
X227165Y49114D02*
X222441D01*
Y43799D01*
X227165D01*
Y44650D01*
X231535D01*
X232480Y43705D01*
Y41176D01*
X227165D01*
Y42028D01*
X222441D01*
Y36713D01*
X227165D01*
Y37564D01*
X232480D01*
Y34641D01*
X231929Y34090D01*
X227165D01*
Y34941D01*
X222441D01*
Y29626D01*
X227165D01*
Y30477D01*
X232677D01*
X233368Y30615D01*
X233954Y31006D01*
X236413Y33465D01*
X239173D01*
Y37205D01*
Y40945D01*
Y44882D01*
X236413D01*
X233561Y47734D01*
X232975Y48125D01*
X232283Y48263D01*
X227165D01*
Y49114D01*
D02*
G37*
G36*
X198425Y46484D02*
X197603Y46376D01*
X196837Y46058D01*
X196179Y45553D01*
X195674Y44895D01*
X195357Y44129D01*
X195248Y43307D01*
X195357Y42485D01*
X195674Y41719D01*
X196179Y41061D01*
X196837Y40556D01*
X197603Y40239D01*
X198425Y40130D01*
X199247Y40239D01*
X200014Y40556D01*
X200672Y41061D01*
X201176Y41719D01*
X201494Y42485D01*
X201602Y43307D01*
X201494Y44129D01*
X201176Y44895D01*
X200672Y45553D01*
X200014Y46058D01*
X199247Y46376D01*
X198425Y46484D01*
D02*
G37*
G36*
X223622Y69064D02*
X222764Y68951D01*
X221964Y68620D01*
X221277Y68093D01*
X220750Y67406D01*
X220419Y66606D01*
X220306Y65748D01*
X220419Y64890D01*
X220750Y64090D01*
X221277Y63403D01*
X221964Y62876D01*
X222764Y62545D01*
X223622Y62432D01*
X224480Y62545D01*
X224888Y62714D01*
X243898Y43705D01*
Y40945D01*
Y37205D01*
Y33465D01*
X250590D01*
Y37205D01*
Y40945D01*
Y44882D01*
X247830D01*
X226934Y65778D01*
X226825Y66606D01*
X226494Y67406D01*
X225967Y68093D01*
X225280Y68620D01*
X224480Y68951D01*
X223622Y69064D01*
D02*
G37*
G36*
X7874Y50625D02*
X7183Y50488D01*
X6597Y50096D01*
X6205Y49510D01*
X6068Y48819D01*
Y44291D01*
X4528D01*
Y40354D01*
Y36614D01*
Y32874D01*
X11220D01*
Y36614D01*
Y40354D01*
Y44291D01*
X9680D01*
Y48819D01*
X9543Y49510D01*
X9151Y50096D01*
X8565Y50488D01*
X7874Y50625D01*
D02*
G37*
G36*
X198425Y38610D02*
X197603Y38502D01*
X196837Y38184D01*
X196179Y37679D01*
X195674Y37021D01*
X195357Y36255D01*
X195248Y35433D01*
X195357Y34611D01*
X195674Y33845D01*
X196179Y33187D01*
X196837Y32682D01*
X197603Y32364D01*
X198425Y32256D01*
X199247Y32364D01*
X200014Y32682D01*
X200672Y33187D01*
X201176Y33845D01*
X201494Y34611D01*
X201602Y35433D01*
X201494Y36255D01*
X201176Y37021D01*
X200672Y37679D01*
X200014Y38184D01*
X199247Y38502D01*
X198425Y38610D01*
D02*
G37*
G36*
X120866Y35599D02*
X120008Y35486D01*
X119208Y35155D01*
X118521Y34628D01*
X117995Y33941D01*
X117663Y33142D01*
X117550Y32283D01*
X117639Y31611D01*
X115162Y29134D01*
X112303D01*
Y24409D01*
X117618D01*
Y26481D01*
X120194Y29056D01*
X120866Y28968D01*
X121724Y29081D01*
X122524Y29412D01*
X123211Y29939D01*
X123738Y30626D01*
X124069Y31425D01*
X124182Y32283D01*
X124069Y33142D01*
X123738Y33941D01*
X123211Y34628D01*
X122524Y35155D01*
X121724Y35486D01*
X120866Y35599D01*
D02*
G37*
G36*
X83895Y29365D02*
X83204Y29228D01*
X82618Y28836D01*
X82233Y28261D01*
X82174Y28250D01*
X81778D01*
X81718Y28261D01*
X81334Y28836D01*
X80748Y29228D01*
X80056Y29365D01*
X79365Y29228D01*
X78779Y28836D01*
X78387Y28250D01*
X78250Y27559D01*
X78387Y26868D01*
X78779Y26282D01*
X79365Y25890D01*
X80056Y25753D01*
X80748Y25890D01*
X81334Y26282D01*
X81718Y26858D01*
X81778Y26868D01*
X82174D01*
X82233Y26858D01*
X82618Y26282D01*
X83204Y25890D01*
X83895Y25753D01*
X84586Y25890D01*
X85172Y26282D01*
X85564Y26868D01*
X85701Y27559D01*
X85564Y28250D01*
X85172Y28836D01*
X84586Y29228D01*
X83895Y29365D01*
D02*
G37*
G36*
X108382Y29346D02*
X106012D01*
Y27272D01*
X108382D01*
Y29346D01*
D02*
G37*
G36*
X105012D02*
X102642D01*
Y27272D01*
X105012D01*
Y29346D01*
D02*
G37*
G36*
X108382Y26272D02*
X106012D01*
Y24197D01*
X108382D01*
Y26272D01*
D02*
G37*
G36*
X105012D02*
X102642D01*
Y24197D01*
X105012D01*
Y26272D01*
D02*
G37*
G36*
X129665Y24114D02*
X121791D01*
Y14665D01*
X129665D01*
Y24114D01*
D02*
G37*
G36*
X135728Y24148D02*
X134701Y24013D01*
X133743Y23616D01*
X132921Y22985D01*
X132289Y22163D01*
X131893Y21205D01*
X131757Y20177D01*
Y18602D01*
X131893Y17575D01*
X132289Y16617D01*
X132921Y15795D01*
X133743Y15163D01*
X134701Y14767D01*
X135728Y14631D01*
X136756Y14767D01*
X137714Y15163D01*
X138536Y15795D01*
X139167Y16617D01*
X139564Y17575D01*
X139699Y18602D01*
Y20177D01*
X139564Y21205D01*
X139167Y22163D01*
X138536Y22985D01*
X137714Y23616D01*
X136756Y24013D01*
X135728Y24148D01*
D02*
G37*
G36*
X212894Y20416D02*
X211609Y20247D01*
X210412Y19751D01*
X209384Y18963D01*
X208595Y17935D01*
X208099Y16737D01*
X207930Y15453D01*
Y15059D01*
X208099Y13774D01*
X208595Y12577D01*
X209384Y11549D01*
X210412Y10760D01*
X211609Y10265D01*
X212894Y10095D01*
X214178Y10265D01*
X215376Y10760D01*
X216404Y11549D01*
X217192Y12577D01*
X217688Y13774D01*
X217857Y15059D01*
Y15453D01*
X217688Y16737D01*
X217192Y17935D01*
X216404Y18963D01*
X215376Y19751D01*
X214178Y20247D01*
X212894Y20416D01*
D02*
G37*
G36*
X149114D02*
X147829Y20247D01*
X146632Y19751D01*
X145604Y18963D01*
X144816Y17935D01*
X144320Y16737D01*
X144150Y15453D01*
Y15059D01*
X144320Y13774D01*
X144816Y12577D01*
X145604Y11549D01*
X146632Y10760D01*
X147829Y10265D01*
X149114Y10095D01*
X150399Y10265D01*
X151596Y10760D01*
X152624Y11549D01*
X153413Y12577D01*
X153909Y13774D01*
X154078Y15059D01*
Y15453D01*
X153909Y16737D01*
X153413Y17935D01*
X152624Y18963D01*
X151596Y19751D01*
X150399Y20247D01*
X149114Y20416D01*
D02*
G37*
G36*
X117618Y22047D02*
X112303D01*
Y17323D01*
X113154D01*
Y13878D01*
X112598D01*
Y9154D01*
X117323D01*
Y13878D01*
X116767D01*
Y17323D01*
X117618D01*
Y22047D01*
D02*
G37*
G36*
X108169D02*
X102854D01*
Y17323D01*
X103705D01*
Y13780D01*
X103150D01*
Y9055D01*
X107874D01*
Y13780D01*
X107318D01*
Y17323D01*
X108169D01*
Y22047D01*
D02*
G37*
G36*
X129862Y11811D02*
X121988D01*
Y6826D01*
X117323D01*
Y7382D01*
X112598D01*
Y6728D01*
X107874D01*
Y7283D01*
X103150D01*
Y2559D01*
X107874D01*
Y3115D01*
X112598D01*
Y2657D01*
X117323D01*
Y3213D01*
X121988D01*
Y2362D01*
X129862D01*
Y11811D01*
D02*
G37*
G36*
X201279Y24508D02*
X192224D01*
Y15453D01*
X195615D01*
X195648Y14953D01*
X195570Y14942D01*
X194469Y14486D01*
X193523Y13761D01*
X192797Y12815D01*
X192341Y11713D01*
X192185Y10531D01*
X192341Y9350D01*
X192797Y8248D01*
X193523Y7302D01*
X194469Y6577D01*
X195570Y6120D01*
X196752Y5965D01*
X197934Y6120D01*
X199035Y6577D01*
X199981Y7302D01*
X200707Y8248D01*
X201163Y9350D01*
X201319Y10531D01*
X201163Y11713D01*
X200707Y12815D01*
X199981Y13761D01*
X199035Y14486D01*
X197934Y14942D01*
X197856Y14953D01*
X197889Y15453D01*
X201279D01*
Y24508D01*
D02*
G37*
G36*
X181004Y24547D02*
X179822Y24391D01*
X178721Y23935D01*
X177775Y23209D01*
X177049Y22264D01*
X176593Y21162D01*
X176437Y19980D01*
X176593Y18798D01*
X177049Y17697D01*
X177775Y16751D01*
X178721Y16025D01*
X179822Y15569D01*
X180287Y15508D01*
Y15004D01*
X179822Y14942D01*
X178721Y14486D01*
X177775Y13761D01*
X177049Y12815D01*
X176593Y11713D01*
X176437Y10531D01*
X176593Y9350D01*
X177049Y8248D01*
X177775Y7302D01*
X178721Y6577D01*
X179822Y6120D01*
X181004Y5965D01*
X182186Y6120D01*
X183287Y6577D01*
X184233Y7302D01*
X184959Y8248D01*
X185415Y9350D01*
X185571Y10531D01*
X185415Y11713D01*
X184959Y12815D01*
X184233Y13761D01*
X183287Y14486D01*
X182186Y14942D01*
X181721Y15004D01*
Y15508D01*
X182186Y15569D01*
X183287Y16025D01*
X184233Y16751D01*
X184959Y17697D01*
X185415Y18798D01*
X185571Y19980D01*
X185415Y21162D01*
X184959Y22264D01*
X184233Y23209D01*
X183287Y23935D01*
X182186Y24391D01*
X181004Y24547D01*
D02*
G37*
G36*
X165256D02*
X164074Y24391D01*
X162973Y23935D01*
X162027Y23209D01*
X161301Y22264D01*
X160845Y21162D01*
X160689Y19980D01*
X160845Y18798D01*
X161301Y17697D01*
X162027Y16751D01*
X162973Y16025D01*
X164074Y15569D01*
X164539Y15508D01*
Y15004D01*
X164074Y14942D01*
X162973Y14486D01*
X162027Y13761D01*
X161301Y12815D01*
X160845Y11713D01*
X160689Y10531D01*
X160845Y9350D01*
X161301Y8248D01*
X162027Y7302D01*
X162973Y6577D01*
X164074Y6120D01*
X165256Y5965D01*
X166438Y6120D01*
X167539Y6577D01*
X168485Y7302D01*
X169211Y8248D01*
X169667Y9350D01*
X169823Y10531D01*
X169667Y11713D01*
X169211Y12815D01*
X168485Y13761D01*
X167539Y14486D01*
X166438Y14942D01*
X165973Y15004D01*
Y15508D01*
X166438Y15569D01*
X167539Y16025D01*
X168485Y16751D01*
X169211Y17697D01*
X169667Y18798D01*
X169823Y19980D01*
X169667Y21162D01*
X169211Y22264D01*
X168485Y23209D01*
X167539Y23935D01*
X166438Y24391D01*
X165256Y24547D01*
D02*
G37*
G36*
X242126Y24442D02*
X240458Y24311D01*
X238831Y23920D01*
X237285Y23280D01*
X235859Y22406D01*
X234586Y21319D01*
X233500Y20047D01*
X232625Y18620D01*
X231985Y17075D01*
X231594Y15448D01*
X231463Y13780D01*
X231594Y12111D01*
X231985Y10485D01*
X232625Y8939D01*
X233500Y7512D01*
X234586Y6240D01*
X235859Y5153D01*
X237285Y4279D01*
X238831Y3639D01*
X240458Y3248D01*
X242126Y3117D01*
X243794Y3248D01*
X245421Y3639D01*
X246967Y4279D01*
X248393Y5153D01*
X249666Y6240D01*
X250752Y7512D01*
X251627Y8939D01*
X252267Y10485D01*
X252658Y12111D01*
X252789Y13780D01*
X252658Y15448D01*
X252267Y17075D01*
X251627Y18620D01*
X250752Y20047D01*
X249666Y21319D01*
X248393Y22406D01*
X246967Y23280D01*
X245421Y23920D01*
X243794Y24311D01*
X242126Y24442D01*
D02*
G37*
G36*
X13780D02*
X12111Y24311D01*
X10485Y23920D01*
X8939Y23280D01*
X7512Y22406D01*
X6240Y21319D01*
X5153Y20047D01*
X4279Y18620D01*
X3639Y17075D01*
X3248Y15448D01*
X3117Y13780D01*
X3248Y12111D01*
X3639Y10485D01*
X4279Y8939D01*
X5153Y7512D01*
X6240Y6240D01*
X7512Y5153D01*
X8939Y4279D01*
X10485Y3639D01*
X12111Y3248D01*
X13780Y3117D01*
X15448Y3248D01*
X17075Y3639D01*
X18620Y4279D01*
X20047Y5153D01*
X21319Y6240D01*
X22406Y7512D01*
X23280Y8939D01*
X23920Y10485D01*
X24311Y12111D01*
X24442Y13780D01*
X24311Y15448D01*
X23920Y17075D01*
X23280Y18620D01*
X22406Y20047D01*
X21319Y21319D01*
X20047Y22406D01*
X18620Y23280D01*
X17075Y23920D01*
X15448Y24311D01*
X13780Y24442D01*
D02*
G37*
G36*
X135925Y11845D02*
X134897Y11710D01*
X133940Y11313D01*
X133117Y10682D01*
X132486Y9860D01*
X132089Y8902D01*
X131954Y7874D01*
Y6299D01*
X132089Y5271D01*
X132486Y4314D01*
X133117Y3491D01*
X133940Y2860D01*
X134897Y2464D01*
X135925Y2328D01*
X136953Y2464D01*
X137911Y2860D01*
X138733Y3491D01*
X139364Y4314D01*
X139761Y5271D01*
X139896Y6299D01*
Y7874D01*
X139761Y8902D01*
X139364Y9860D01*
X138733Y10682D01*
X137911Y11313D01*
X136953Y11710D01*
X135925Y11845D01*
D02*
G37*
%LPD*%
G36*
X85136Y141638D02*
X85827Y141501D01*
X86288Y141593D01*
X86788Y141263D01*
Y139366D01*
X63936Y116514D01*
X63349Y116634D01*
X63088Y117025D01*
X63064Y117267D01*
X71567Y125770D01*
X71653Y125753D01*
X72345Y125890D01*
X72931Y126282D01*
X73322Y126868D01*
X73460Y127559D01*
X73322Y128250D01*
X72931Y128836D01*
X72345Y129228D01*
X71653Y129365D01*
X71348Y129305D01*
X71208Y129420D01*
X70984Y129742D01*
X71098Y130315D01*
X70960Y131006D01*
X70569Y131592D01*
X69983Y131984D01*
X69291Y132121D01*
X68986Y132061D01*
X68846Y132176D01*
X68621Y132498D01*
X68735Y133071D01*
X68598Y133762D01*
X68206Y134348D01*
X67620Y134740D01*
X66929Y134877D01*
X66844Y134860D01*
X66597Y135321D01*
X70971Y139695D01*
X81351D01*
X81400Y139622D01*
X81986Y139230D01*
X82677Y139093D01*
X83368Y139230D01*
X83955Y139622D01*
X84346Y140208D01*
X84483Y140899D01*
X84352Y141560D01*
X84419Y141649D01*
X84738Y141904D01*
X85136Y141638D01*
D02*
G37*
G36*
X67375Y131210D02*
X67599Y130888D01*
X67485Y130315D01*
X67502Y130229D01*
X43398Y106125D01*
X42937Y106316D01*
Y107375D01*
X66843Y131282D01*
X66929Y131264D01*
X67234Y131325D01*
X67375Y131210D01*
D02*
G37*
G36*
X73483Y118315D02*
X73538Y118245D01*
X73920Y117675D01*
X73993Y117626D01*
Y116929D01*
X73993Y116929D01*
X74084Y116468D01*
X74345Y116078D01*
X80251Y110172D01*
X80251Y110172D01*
X80642Y109911D01*
X81102Y109819D01*
X85463D01*
X94762Y100521D01*
X94597Y99978D01*
X94190Y99897D01*
X93604Y99505D01*
X93213Y98919D01*
X93075Y98228D01*
X93190Y97649D01*
X82610Y87069D01*
X82110Y87276D01*
Y96376D01*
X82018Y96837D01*
X81757Y97227D01*
X81757Y97227D01*
X78227Y100757D01*
X78348Y101344D01*
X78739Y101605D01*
X79130Y102191D01*
X79140Y102240D01*
X82591Y105691D01*
X82677Y105674D01*
X83368Y105811D01*
X83955Y106203D01*
X84346Y106789D01*
X84483Y107480D01*
X84346Y108172D01*
X83955Y108758D01*
X83368Y109149D01*
X82677Y109287D01*
X81986Y109149D01*
X81400Y108758D01*
X81008Y108172D01*
X80871Y107480D01*
X80888Y107394D01*
X78063Y104569D01*
X77461Y104689D01*
X77000Y104597D01*
X76500Y104926D01*
Y105957D01*
X76868Y106203D01*
X77259Y106789D01*
X77397Y107480D01*
X77259Y108172D01*
X76868Y108758D01*
X76282Y109149D01*
X75590Y109287D01*
X74899Y109149D01*
X74396Y108813D01*
X73865Y108919D01*
X73857Y108959D01*
X73466Y109545D01*
X72880Y109937D01*
X72189Y110074D01*
X71497Y109937D01*
X70911Y109545D01*
X70624Y109115D01*
X70586Y109102D01*
X70106D01*
X70069Y109115D01*
X69781Y109545D01*
X69195Y109937D01*
X68504Y110074D01*
X67813Y109937D01*
X67472Y109709D01*
X67156Y109597D01*
X66831Y109836D01*
X66632Y110135D01*
X66046Y110527D01*
X65857Y110564D01*
X65693Y111107D01*
X73003Y118417D01*
X73483Y118315D01*
D02*
G37*
G36*
X215354Y47116D02*
Y44157D01*
X215354Y44142D01*
X214854Y43935D01*
X193920Y64869D01*
X194112Y65331D01*
X197139D01*
X215354Y47116D01*
D02*
G37*
G36*
X55882Y95635D02*
Y38019D01*
X55873Y37997D01*
X55838Y37974D01*
X55338Y38243D01*
Y95873D01*
X55382Y95902D01*
X55882Y95635D01*
D02*
G37*
G36*
X59640Y96994D02*
X59623Y96906D01*
X59623Y96906D01*
Y37153D01*
X59549Y37104D01*
X59301Y36732D01*
X58770Y36838D01*
X58755Y36912D01*
X58364Y37498D01*
X58291Y37547D01*
Y96352D01*
X59179Y97240D01*
X59640Y96994D01*
D02*
G37*
D11*
X108268Y98327D02*
Y98819D01*
X94882Y97638D02*
Y98228D01*
X83071Y85827D02*
X94882Y97638D01*
X108268Y98819D02*
X111896Y102448D01*
X131052Y172441D02*
X220079D01*
X128740Y170129D02*
X131052Y172441D01*
X130709Y167717D02*
X133380D01*
X159055Y142042D01*
Y137795D02*
Y142042D01*
X125925Y172047D02*
X133405Y179528D01*
X123563Y174803D02*
X135374Y186614D01*
X64961Y108464D02*
X65354Y108071D01*
X51968Y31102D02*
X54134Y33268D01*
X49213Y34252D02*
X51181Y36220D01*
X44488Y33465D02*
X48425Y37402D01*
Y97769D01*
X50984Y100328D01*
X60827Y96906D02*
X72189Y108268D01*
X60827Y35827D02*
Y96906D01*
X57087Y96850D02*
X68504Y108268D01*
X57087Y36220D02*
Y96850D01*
X54134Y33268D02*
Y96850D01*
X48031Y101968D02*
X61811Y115748D01*
X51181Y98298D02*
X84070Y131187D01*
X48031Y100787D02*
Y101968D01*
X51181Y36220D02*
Y98298D01*
X50984Y100328D02*
Y101859D01*
X87992Y138867D01*
X45669Y38684D02*
Y102669D01*
X38088Y31102D02*
X45669Y38684D01*
X43701Y44215D02*
Y104724D01*
X38088Y38602D02*
X43701Y44215D01*
X45669Y102669D02*
X60914Y117913D01*
X43701Y104724D02*
X69291Y130315D01*
X41732Y49708D02*
Y107874D01*
X66929Y133071D01*
X39370Y88583D02*
Y109797D01*
X30663Y79875D02*
X39370Y88583D01*
Y109797D02*
X70472Y140899D01*
X37008Y90158D02*
Y110630D01*
X30663Y83812D02*
X37008Y90158D01*
Y110630D02*
X69685Y143307D01*
X54134Y96850D02*
X65354Y108071D01*
X75296Y101985D02*
X80905Y96376D01*
Y47835D02*
Y96376D01*
Y47835D02*
X81102Y47638D01*
X83071Y53937D02*
Y85827D01*
X64961Y108464D02*
X65354Y108858D01*
X75296Y101985D02*
Y107186D01*
X84070Y131187D02*
X92126D01*
X90945Y155905D02*
X131496Y115354D01*
X117196Y134252D02*
X145669D01*
X93307Y158141D02*
X117196Y134252D01*
X87992Y138867D02*
Y144204D01*
X85962Y146234D02*
X87992Y144204D01*
X85962Y146234D02*
Y166035D01*
X69685Y143307D02*
X85827D01*
X70472Y140899D02*
X82677D01*
X89876Y150900D02*
X93138Y147638D01*
X70079Y146063D02*
X82847D01*
X80847Y171150D02*
X85962Y166035D01*
X90945Y155905D02*
Y164114D01*
X131496Y115354D02*
X158268D01*
X80245Y118504D02*
X83071D01*
X78079Y102882D02*
X82677Y107480D01*
X96850Y161417D02*
X120472Y137795D01*
X170779Y117323D02*
X246063D01*
X62008Y117913D02*
X71653Y127559D01*
X60914Y117913D02*
X62008D01*
X80847Y171150D02*
Y173042D01*
X82214Y174409D01*
X86221D01*
X120472Y137795D02*
X154724D01*
X140245Y119488D02*
X168613D01*
X75296Y107186D02*
X75590Y107480D01*
X111896Y102448D02*
Y104724D01*
X98388Y109055D02*
X119291D01*
X120472Y110236D01*
X77461Y102882D02*
X78079D01*
X102362Y114567D02*
X110236Y122609D01*
X32087Y96457D02*
Y113386D01*
X130709Y112992D02*
X163386D01*
X34646Y110630D02*
X70079Y146063D01*
X34646Y94488D02*
Y110630D01*
X62858Y174213D02*
X74472Y162598D01*
X72897Y167717D02*
Y168048D01*
X64961Y175984D02*
X72897Y168048D01*
X81102Y111024D02*
X85962D01*
X75197Y116929D02*
X81102Y111024D01*
X75197Y116929D02*
X75197Y118952D01*
Y119663D01*
X77883Y117562D02*
X82847Y112598D01*
X77883Y117562D02*
Y121457D01*
X83012Y172047D02*
X90945Y164114D01*
X27861Y79875D02*
X30663D01*
X27907Y83812D02*
X30663D01*
X27953Y87795D02*
X34646Y94488D01*
X135433Y126772D02*
X136811Y125394D01*
Y122922D02*
Y125394D01*
Y122922D02*
X140245Y119488D01*
X168613D02*
X170779Y117323D01*
X83071Y118504D02*
X135039Y66535D01*
X86614Y112598D02*
X134252Y64961D01*
X85962Y111024D02*
X133600Y63386D01*
X135039Y66535D02*
X197638D01*
X134252Y64961D02*
X192126D01*
X133600Y63386D02*
X190551D01*
X82847Y112598D02*
X86614D01*
X96063Y147638D02*
X130709Y112992D01*
X93138Y147638D02*
X96063D01*
X163386Y112992D02*
X167717Y117323D01*
X66535Y177559D02*
X77953Y166142D01*
X51935Y177559D02*
X66535D01*
X62756Y175984D02*
X64961D01*
X39764Y174213D02*
X62858D01*
X51282Y175984D02*
X62756D01*
X44983Y182283D02*
X51282Y175984D01*
X133405Y179528D02*
X220079D01*
X135374Y186614D02*
X220079D01*
X209449Y40551D02*
X217717Y32283D01*
X209449Y40551D02*
Y44488D01*
X190551Y63386D02*
X209449Y44488D01*
X192126Y64961D02*
X217717Y39370D01*
X197638Y66535D02*
X217717Y46457D01*
X39730Y189764D02*
X51935Y177559D01*
X39173Y189764D02*
X39730D01*
X38088Y46063D02*
X41732Y49708D01*
X39173Y182283D02*
X44983D01*
D12*
X39173Y174803D02*
X39764Y174213D01*
X165590Y191831D02*
X175984D01*
D41*
X246063Y127323D02*
D03*
Y137323D02*
D03*
Y147323D02*
D03*
Y117323D02*
D03*
Y107323D02*
D03*
Y97323D02*
D03*
D51*
X114961Y26772D02*
D03*
Y19685D02*
D03*
X105512D02*
D03*
Y26772D02*
D03*
D71*
X176378Y39370D02*
X177756D01*
X190945Y52559D01*
D72*
X29488Y46063D02*
X31001D01*
X28307Y44882D02*
X29488Y46063D01*
X26024Y44882D02*
X28307D01*
X24843Y46063D02*
X26024Y44882D01*
X23031Y46063D02*
X24843D01*
X23425Y174803D02*
X32087D01*
X19685Y178543D02*
X23425Y174803D01*
X8268Y172047D02*
Y178543D01*
Y182283D01*
Y186024D01*
X227165Y172441D02*
X233465D01*
X236811Y175787D01*
X227165Y179528D02*
X236811D01*
X227165Y186614D02*
X233465D01*
X236811Y183268D01*
X248228Y179528D02*
Y183268D01*
Y175787D02*
Y179528D01*
X114961Y26772D02*
X115354D01*
X120866Y32283D01*
X105512Y19685D02*
X105512Y19685D01*
X105512Y11417D02*
Y19685D01*
X114961Y11516D02*
Y19685D01*
X123858Y5020D02*
X125925Y7087D01*
X114961Y5020D02*
X123858D01*
X114862Y4921D02*
X114961Y5020D01*
X105512Y4921D02*
X114862D01*
X239764Y133622D02*
X246063Y127323D01*
X239764Y133622D02*
Y151575D01*
X248228Y160039D01*
Y175787D01*
X223622Y65748D02*
X224410D01*
X247244Y42913D01*
X7874Y42323D02*
Y48819D01*
X247244Y35433D02*
Y39173D01*
Y42913D01*
X232283Y46457D02*
X235827Y42913D01*
X224803Y46457D02*
X232283D01*
X232677Y32283D02*
X235827Y35433D01*
X224803Y32283D02*
X232677D01*
X235630Y39370D02*
X235827Y39173D01*
X224803Y39370D02*
X235630D01*
X7874Y38583D02*
Y42323D01*
Y34843D02*
Y38583D01*
X23031Y31102D02*
X31001D01*
X19291Y34843D02*
X23031Y31102D01*
X19291Y42323D02*
X23031Y46063D01*
X19291Y38583D02*
X19310Y38602D01*
X31001D01*
X23425Y189764D02*
X32087D01*
X19685Y186024D02*
X23425Y189764D01*
X19685Y182283D02*
X32087D01*
D79*
X198425Y43307D02*
D03*
Y35433D02*
D03*
D80*
X196752Y19980D02*
D03*
D81*
Y10531D02*
D03*
X181004Y19980D02*
D03*
Y10531D02*
D03*
X165256D02*
D03*
Y19980D02*
D03*
D82*
X212894Y15256D02*
D03*
X149114D02*
D03*
D83*
X223012Y211811D02*
D03*
Y201811D02*
D03*
X203012Y211811D02*
D03*
Y201811D02*
D03*
X213012Y211811D02*
D03*
Y201811D02*
D03*
X183012Y211811D02*
D03*
Y201811D02*
D03*
X193012Y211811D02*
D03*
Y201811D02*
D03*
X163012Y211811D02*
D03*
Y201811D02*
D03*
X173012Y211811D02*
D03*
Y201811D02*
D03*
X143012Y211811D02*
D03*
Y201811D02*
D03*
X153012Y211811D02*
D03*
Y201811D02*
D03*
X123012Y211811D02*
D03*
Y201811D02*
D03*
X133012Y211811D02*
D03*
Y201811D02*
D03*
X103012Y211811D02*
D03*
Y201811D02*
D03*
X113012Y211811D02*
D03*
Y201811D02*
D03*
X33012D02*
D03*
X43012D02*
D03*
Y211811D02*
D03*
X53012D02*
D03*
Y201811D02*
D03*
X63012Y211811D02*
D03*
Y201811D02*
D03*
X93012D02*
D03*
Y211811D02*
D03*
X83012Y201811D02*
D03*
Y211811D02*
D03*
X73012D02*
D03*
Y201811D02*
D03*
D84*
X33012Y211811D02*
D03*
D85*
X59055Y168110D02*
D03*
Y181890D02*
D03*
D86*
X135925Y7087D02*
D03*
X135728Y19390D02*
D03*
D87*
X125925Y7087D02*
D03*
X125728Y19390D02*
D03*
D88*
X134646Y85827D02*
D03*
D89*
X158071Y129331D02*
D03*
X162402D02*
D03*
X158071Y125000D02*
D03*
X162402D02*
D03*
X171457Y135236D02*
D03*
X178543Y123819D02*
D03*
X108268Y98327D02*
D03*
X94882Y98228D02*
D03*
X128740Y170129D02*
D03*
X130709Y167717D02*
D03*
X159055Y137795D02*
D03*
X125925Y172047D02*
D03*
X123563Y174803D02*
D03*
X27165Y47638D02*
D03*
X51968Y31102D02*
D03*
X49213Y34252D02*
D03*
X44488Y33465D02*
D03*
X48031Y100787D02*
D03*
X57087Y36220D02*
D03*
X60827Y35827D02*
D03*
X81102Y47638D02*
D03*
X83071Y53937D02*
D03*
X99167Y140899D02*
D03*
X85827Y143307D02*
D03*
X82677Y140899D02*
D03*
X89876Y150900D02*
D03*
X82847Y146063D02*
D03*
X80245Y118504D02*
D03*
X82677Y107480D02*
D03*
X61811Y115748D02*
D03*
X65354Y108858D02*
D03*
X68504Y108268D02*
D03*
X72189D02*
D03*
X75590Y107480D02*
D03*
X120472Y110236D02*
D03*
X111896Y104724D02*
D03*
X77461Y102882D02*
D03*
X102362Y114567D02*
D03*
X98388Y109055D02*
D03*
X110236Y122609D02*
D03*
X32087Y96457D02*
D03*
Y113386D02*
D03*
X74472Y162598D02*
D03*
X72897Y167717D02*
D03*
X75197Y118952D02*
D03*
X83012Y172047D02*
D03*
X86221Y174409D02*
D03*
X27953Y87795D02*
D03*
X27861Y79875D02*
D03*
X27907Y83812D02*
D03*
X158268Y115354D02*
D03*
X77883Y121457D02*
D03*
X87786Y178301D02*
D03*
X77953Y166142D02*
D03*
X70079Y158268D02*
D03*
X145669Y134252D02*
D03*
X154724Y137795D02*
D03*
X93307Y158141D02*
D03*
X96850Y161417D02*
D03*
X135433Y126772D02*
D03*
X138976Y123819D02*
D03*
X142126Y108661D02*
D03*
X193701Y156693D02*
D03*
X188976Y189370D02*
D03*
X164975Y181890D02*
D03*
X167717Y117323D02*
D03*
Y112205D02*
D03*
X165590Y191831D02*
D03*
X80056Y27559D02*
D03*
X83895D02*
D03*
X7874Y48819D02*
D03*
X71653Y127559D02*
D03*
X69291Y130315D02*
D03*
X66929Y133071D02*
D03*
X28740Y147343D02*
D03*
Y143307D02*
D03*
X27953Y113681D02*
D03*
X28839Y50591D02*
D03*
X8268Y172047D02*
D03*
D90*
X99954Y122312D02*
D03*
X92126Y131187D02*
D03*
X175984Y191831D02*
D03*
D91*
X120866Y32283D02*
D03*
X223622Y65748D02*
D03*
Y75984D02*
D03*
D92*
X176378Y39370D02*
D03*
X190945Y52559D02*
D03*
D93*
X13780Y206693D02*
D03*
X242126D02*
D03*
X13780Y13780D02*
D03*
X242126D02*
D03*
D94*
X19685Y178543D02*
D03*
Y182283D02*
D03*
Y186024D02*
D03*
X8268Y178543D02*
D03*
Y182283D02*
D03*
Y186024D02*
D03*
X19291Y34843D02*
D03*
Y38583D02*
D03*
Y42323D02*
D03*
X7874Y34843D02*
D03*
Y38583D02*
D03*
Y42323D02*
D03*
X235827Y42913D02*
D03*
Y39173D02*
D03*
Y35433D02*
D03*
X247244Y42913D02*
D03*
Y39173D02*
D03*
Y35433D02*
D03*
X236811Y183268D02*
D03*
Y179528D02*
D03*
Y175787D02*
D03*
X248228Y183268D02*
D03*
Y179528D02*
D03*
Y175787D02*
D03*
D95*
X31001Y31102D02*
D03*
X38088D02*
D03*
X31001Y38602D02*
D03*
X38088D02*
D03*
X224803Y32283D02*
D03*
X217717D02*
D03*
X224803Y39370D02*
D03*
X217717D02*
D03*
X224803Y46457D02*
D03*
X217717D02*
D03*
X227165Y172441D02*
D03*
X220079D02*
D03*
X227165Y179528D02*
D03*
X220079D02*
D03*
X227165Y186614D02*
D03*
X220079D02*
D03*
X31001Y46063D02*
D03*
X38088D02*
D03*
X32087Y189764D02*
D03*
X39173D02*
D03*
X32087Y182283D02*
D03*
X39173D02*
D03*
X32087Y174803D02*
D03*
X39173D02*
D03*
D96*
X114961Y11516D02*
D03*
Y5020D02*
D03*
X105512Y11417D02*
D03*
Y4921D02*
D03*
M02*
