M48
;Layer_Color=9474304
;FILE_FORMAT=2:4
INCH,TZ
;TYPE=PLATED
T1F00S00C0.0079
T2F00S00C0.0118
T3F00S00C0.0280
T4F00S00C0.0315
T5F00S00C0.0394
T6F00S00C0.0472
T7F00S00C0.0591
T8F00S00C0.0748
T9F00S00C0.1181
T10F00S00C0.1220
%
T01
X15807Y12500
Y12933
X16240
Y12500
T02
X787Y4882
X2717Y4764
X2884Y5059
X2786Y7988
X2791Y8381
X2795Y8780
X3209Y9646
Y11339
X2795Y11368
X2874Y14331
Y14734
X6693Y13307
X6929Y13032
X7165Y12756
X7520Y11895
X7788Y12146
X8025Y11850
X8268Y10748
X7559Y10748
X7219Y10827
X6850
X6535Y10886
X6181Y11575
X7746Y10288
X9488Y9823
X10827Y9833
X11190Y10472
X12047Y11024
X10236Y11457
X9839Y10906
X9995Y12231
X11024Y12261
X9213Y13119
X9917Y14090
X8583Y14331
X8268Y14090
X8285Y14606
X8988Y15090
X13543Y12677
X13898Y12382
X14567Y13425
X15472Y13780
X14213Y10866
X4803Y10079
X4921Y3425
X4449Y3346
X5197Y3110
X5709Y3622
X6083Y3583
X8006Y2756
X8389
X8110Y4764
X8307Y5394
X15827Y11535
X16772Y11732
Y11220
X17854Y12382
X17146Y13524
X15906Y13780
X16497Y18189
X16559Y19183
X17598
X18898Y18937
X19370Y15669
X13071Y16772
X12874Y17013
X12593Y17205
X12356Y17480
X8622Y17441
X8779Y17830
X8301Y17205
X7795Y16614
X7290Y16772
X7447Y16260
X7008Y15827
X9331Y15814
X9685Y16142
X827Y17205
T03
X12087Y3228
X22362Y6575
Y7598
T04
X19843Y3543
Y4331
T05
X17638Y3937
X19094Y5256
X24606Y9732
Y10732
Y11732
Y12732
Y13732
Y14732
X5906Y16811
Y18189
T06
X12593Y709
X13593
X13573Y1939
X12573
X16301Y20181
Y21181
X17301
X18301
Y20181
X19301
X20301
Y21181
X21301
X22301
Y20181
X21301
X19301Y21181
X17301Y20181
X15301
X14301
Y21181
X15301
X13301
X12301
Y20181
X13301
X11301
X10301
Y21181
X11301
X9301
Y20181
X8301
Y21181
X7301
X6301
X5301
X4301
X3301
Y20181
X4301
X5301
X6301
X7301
T07
X16526Y1053
Y1998
X18100
Y1053
X19675
Y1998
T08
X14911Y1526
X21289
T09
X13465Y8583
T10
X1378Y1378
X24213
Y20669
X1378
M30
